<svg width="372" height="143" viewBox="0 0 372 143" fill="none" xmlns="http://www.w3.org/2000/svg">
<path d="M1.0625 18.8125C1.1875 18.1875 1.27083 17.6875 1.3125 17.3125C1.35417 16.8958 1.20833 16.4583 0.875 16C1.04167 15.3333 1.16667 14.8125 1.25 14.4375C1.375 14.0625 1.39583 13.5417 1.3125 12.875C1.6875 11.7917 2.25 10.875 3 10.125C3.79167 9.375 4.64583 8.75 5.5625 8.25C6.47917 7.70833 7.4375 7.27083 8.4375 6.9375C9.4375 6.5625 10.375 6.25 11.25 6C11.25 5.83333 11.1667 5.75 11 5.75C10.8333 5.75 10.7917 5.64583 10.875 5.4375C13.125 5.02083 15.375 4.41667 17.625 3.625C19.9167 2.83333 22.25 2.125 24.625 1.5C27 0.875 29.4375 0.5 31.9375 0.375C34.4375 0.208333 37.0625 0.520833 39.8125 1.3125C39.9792 1.8125 40.2083 2.29167 40.5 2.75C40.7917 3.20833 41.0833 3.66667 41.375 4.125C41.7083 4.54167 42 4.95833 42.25 5.375C42.5 5.79167 42.6458 6.22917 42.6875 6.6875C43.1875 7.14583 43.5833 7.64583 43.875 8.1875C44.2083 8.6875 44.2708 9.375 44.0625 10.25C43.6042 10.5833 43.125 10.9167 42.625 11.25C42.125 11.5833 41.6042 11.8958 41.0625 12.1875C39.1875 11.7292 37.3125 11.5625 35.4375 11.6875C33.5625 11.8125 31.875 11.9583 30.375 12.125C29.9167 11.625 29.375 11.3958 28.75 11.4375C28.125 11.4375 27.4583 11.5417 26.75 11.75C26.0833 11.9167 25.4167 12.1042 24.75 12.3125C24.0833 12.4792 23.4583 12.5208 22.875 12.4375C22.4167 12.8542 21.8125 13.1458 21.0625 13.3125C20.3125 13.4375 19.5208 13.5417 18.6875 13.625C18.6458 13.8333 18.6875 13.9792 18.8125 14.0625C18.9375 14.1458 18.9583 14.3125 18.875 14.5625C19.1667 14.9375 19.5625 15.2083 20.0625 15.375C20.5625 15.5 21.0625 15.625 21.5625 15.75C22.1042 15.875 22.5833 16.0625 23 16.3125C23.4167 16.5208 23.6875 16.875 23.8125 17.375C24.5625 17.4167 25.2083 17.625 25.75 18C26.2917 18.3333 26.75 18.75 27.125 19.25C27.5 19.75 27.7708 20.2917 27.9375 20.875C28.1042 21.4167 28.1667 21.9167 28.125 22.375C28.2917 22.7917 28.4583 22.9583 28.625 22.875C28.8333 22.7917 29.0625 22.8958 29.3125 23.1875C29.4792 23.8125 29.8542 24.4792 30.4375 25.1875C31.0625 25.8542 31.5417 26.5833 31.875 27.375C31.9583 28.625 32.0208 29.75 32.0625 30.75C32.1458 31.75 31.9792 32.7292 31.5625 33.6875C30.8542 35.5208 29.8333 37.1667 28.5 38.625C27.1667 40.0833 25.6458 41.375 23.9375 42.5C22.2708 43.5833 20.5 44.5417 18.625 45.375C16.75 46.1667 14.8958 46.8333 13.0625 47.375C12.8958 47.3333 12.6875 47.3333 12.4375 47.375C12.2292 47.4167 12.1875 47.2917 12.3125 47C11.9375 47.3333 11.5 47.5417 11 47.625C10.5417 47.7083 10.0208 47.7292 9.4375 47.6875C8.89583 47.6875 8.33333 47.6667 7.75 47.625C7.20833 47.5833 6.66667 47.6042 6.125 47.6875C5.79167 47.3542 5.47917 47.0208 5.1875 46.6875C4.9375 46.3542 4.72917 45.9583 4.5625 45.5C4.35417 45.4583 4.25 45.3333 4.25 45.125C4.29167 44.875 4.20833 44.75 4 44.75C4 44.5833 4.02083 44.4583 4.0625 44.375C4.10417 44.2917 4.14583 44.2083 4.1875 44.125C4.35417 44 4.41667 43.9167 4.375 43.875C4.375 43.7917 4.3125 43.7292 4.1875 43.6875C4.10417 43.6042 4 43.5208 3.875 43.4375C3.79167 43.3542 3.77083 43.25 3.8125 43.125C4.02083 42.75 4.08333 42.3125 4 41.8125C3.95833 41.2708 3.91667 40.7292 3.875 40.1875C3.83333 39.6458 3.875 39.1458 4 38.6875C4.125 38.1875 4.47917 37.7708 5.0625 37.4375C6.77083 37.6042 8.375 37.5208 9.875 37.1875C11.4167 36.8542 12.8542 36.3958 14.1875 35.8125C15.5625 35.2292 16.8542 34.6042 18.0625 33.9375C19.3125 33.2292 20.5208 32.5833 21.6875 32C21.8125 31.5833 22 31.2292 22.25 30.9375C22.5417 30.6458 22.8333 30.375 23.125 30.125C23.4167 29.8333 23.6875 29.5417 23.9375 29.25C24.1875 28.9167 24.375 28.5208 24.5 28.0625C24.5417 27.8958 24.5417 27.7708 24.5 27.6875C24.4583 27.6042 24.3958 27.5417 24.3125 27.5C24.2292 27.4167 24.1458 27.3333 24.0625 27.25C23.9792 27.1667 23.9375 27.0417 23.9375 26.875C23.8125 26.8333 23.6875 26.7917 23.5625 26.75C23.4792 26.7083 23.3958 26.6875 23.3125 26.6875C22.2292 26.1458 21.0833 25.6875 19.875 25.3125C18.6667 24.9375 17.6458 24.5208 16.8125 24.0625C16.3125 24.3958 15.8125 24.4792 15.3125 24.3125C14.8125 24.1458 14.2083 23.9792 13.5 23.8125C11.75 23.7292 10.0833 23.5625 8.5 23.3125C6.95833 23.0625 5.45833 22.625 4 22C3.91667 21.75 3.8125 21.5417 3.6875 21.375C3.5625 21.1667 3.27083 21.1042 2.8125 21.1875C2.52083 20.7708 2.20833 20.3958 1.875 20.0625C1.58333 19.6875 1.3125 19.2708 1.0625 18.8125ZM79.75 45.875C79.3333 46.0833 78.9375 46.2708 78.5625 46.4375C78.2292 46.6042 77.8333 46.6875 77.375 46.6875C75.75 45.4792 74.8958 43.375 74.8125 40.375C74.7708 37.375 75.4167 33.5625 76.75 28.9375C76.9583 28.8125 77.0625 28.5625 77.0625 28.1875L76.5 27.5625C76.3333 27.5625 76.1667 27.5833 76 27.625C75.875 27.6667 75.7708 27.8125 75.6875 28.0625C74.6042 28.8542 73.4167 29.6875 72.125 30.5625C70.8333 31.3958 69.4792 32.1875 68.0625 32.9375C66.6875 33.6458 65.2708 34.2292 63.8125 34.6875C62.3958 35.1458 61 35.375 59.625 35.375C56.125 35.375 53.5 33.6042 51.75 30.0625L51.25 29.125L50.75 29.9375C50.625 30.1042 50.4375 30.4583 50.1875 31C49.9375 31.5 49.6875 32.0833 49.4375 32.75C49.1875 33.4167 48.9583 34.1042 48.75 34.8125C48.5833 35.4792 48.5208 36.0625 48.5625 36.5625C48.1875 36.9375 47.7917 37.375 47.375 37.875C46.9583 38.375 46.6458 38.9375 46.4375 39.5625C46.3542 39.8958 46.3958 40.2083 46.5625 40.5C46.4792 40.875 46.2917 41.1667 46 41.375C45.8333 41.5833 45.6458 41.7917 45.4375 42C45.2708 42.1667 45.125 42.3542 45 42.5625C44.9167 42.7708 44.8542 42.9792 44.8125 43.1875C44.8125 43.3958 44.7917 43.6042 44.75 43.8125C44.75 44.1042 44.7083 44.375 44.625 44.625C43.9167 46.0833 43.3542 47.0208 42.9375 47.4375C42.5208 47.8958 41.9583 48.125 41.25 48.125C40.9167 48.125 40.375 48.0625 39.625 47.9375C39.0833 47.3542 38.5833 46.5625 38.125 45.5625C37.7083 44.5208 37.375 43.4167 37.125 42.25C36.9167 41.0833 36.8125 39.9167 36.8125 38.75C36.8542 37.5417 37.0625 36.5 37.4375 35.625C37.4375 35.5833 37.6042 35.1667 37.9375 34.375C38.2708 33.5833 38.6875 32.5625 39.1875 31.3125C39.7292 30.0625 40.3333 28.6875 41 27.1875C41.6667 25.6458 42.3333 24.1667 43 22.75C43.6667 21.2917 44.2917 19.9583 44.875 18.75C45.5 17.5417 46.0208 16.625 46.4375 16C46.7708 15.5 47.0625 15.0417 47.3125 14.625C47.6042 14.1667 47.875 13.7292 48.125 13.3125C48.875 12.0208 49.5833 10.9583 50.25 10.125C50.9583 9.25 51.9792 8.5625 53.3125 8.0625C54.2292 8.4375 54.8958 8.875 55.3125 9.375L55.4375 10.0625C55.6042 10.4792 55.8542 10.6875 56.1875 10.6875C56.6458 10.8125 57.0208 10.9375 57.3125 11.0625C57.6458 11.1458 58 11.2292 58.375 11.3125C58.6667 11.6458 58.9375 12.0417 59.1875 12.5C59.5208 13 59.8333 13.5 60.125 14C60.4583 14.4583 60.7083 14.9375 60.875 15.4375C61.0833 15.8958 61.1875 16.375 61.1875 16.875C61.2292 17.375 61.1458 17.8958 60.9375 18.4375L61 19.0625C61.2083 19.4375 61.25 19.9583 61.125 20.625C61.0833 20.9167 61.0625 21.2292 61.0625 21.5625C61.0625 21.8542 61.1042 22.1875 61.1875 22.5625C61.9375 23.1458 62.6042 23.4375 63.1875 23.4375C63.8542 23.4375 64.4583 23.2917 65 23C65.5833 22.6667 66.125 22.3333 66.625 22C66.9583 21.75 67.2917 21.5417 67.625 21.375C67.9583 21.1667 68.2917 21.0417 68.625 21C69.375 20.2917 70.0417 19.6667 70.625 19.125C71.25 18.5833 71.8958 18.0417 72.5625 17.5C73.8125 16.5 75.0208 15.4167 76.1875 14.25C77.3542 13.0833 78.2917 11.625 79 9.875C79.4167 9.625 79.8542 9.5 80.3125 9.5C80.7708 9.5 81.25 9.60417 81.75 9.8125C82.25 10.0208 82.7292 10.2292 83.1875 10.4375C83.3125 10.5208 83.4167 10.5833 83.5 10.625C83.625 10.6667 83.7292 10.7083 83.8125 10.75C83.8125 11.1667 83.9792 11.5208 84.3125 11.8125C84.4792 11.9375 84.5833 12.0208 84.625 12.0625C84.6667 12.1042 84.7292 12.1458 84.8125 12.1875C85.4375 12.5208 85.8333 12.8542 86 13.1875C86.2917 14.1458 86.8125 14.875 87.5625 15.375C87.4792 15.7917 87.4792 16.1875 87.5625 16.5625C87.6875 16.8958 87.8333 17.25 88 17.625C88.0417 17.75 88.0833 17.875 88.125 18C88.1667 18.125 88.2292 18.2708 88.3125 18.4375L87.125 18.3125L87.3125 19.5C87.3958 20.0833 87.3333 20.7292 87.125 21.4375C86.9583 22.1458 86.75 22.7083 86.5 23.125C86.5417 24.2083 86.5625 25.0625 86.5625 25.6875C86.6042 26.2708 86.5833 26.8333 86.5 27.375C86.4167 27.875 86.2917 28.3542 86.125 28.8125C86 29.2708 85.8125 29.7708 85.5625 30.3125C85.7292 32.9792 85.4167 35.4167 84.625 37.625C83.875 39.7917 83.0833 41.8333 82.25 43.75C82.1667 43.9583 82.0625 44.1667 81.9375 44.375C81.8542 44.5833 81.7708 44.7917 81.6875 45C81.3125 45.125 80.9792 45.2708 80.6875 45.4375C80.3958 45.5625 80.0833 45.7083 79.75 45.875ZM121.688 41.75C121.438 42.4583 121.062 43.1875 120.562 43.9375C120.104 44.6458 119.542 45.2917 118.875 45.875C118.25 46.4167 117.542 46.875 116.75 47.25C115.958 47.625 115.125 47.8333 114.25 47.875C113.708 47.75 113.333 47.6042 113.125 47.4375C112.958 47.3125 112.771 47.1875 112.562 47.0625C112.438 46.9792 112.312 46.9167 112.188 46.875C112.104 46.7917 112.021 46.7292 111.938 46.6875L111.188 46.375L111.438 45.5625C111.521 45.2292 111.5 44.9792 111.375 44.8125C111.25 44.6042 111 44.3333 110.625 44C110.5 43.875 110.375 43.75 110.25 43.625C110.125 43.5 110.021 43.375 109.938 43.25L108.875 42.0625L110.562 41.625C111.604 41.3333 112.292 40.9583 112.625 40.5C113 40.0417 113.146 39.2708 113.062 38.1875C112.229 38.0208 111.521 38 110.938 38.125C110.396 38.25 109.833 38.3958 109.25 38.5625C108.5 38.7708 107.729 38.9583 106.938 39.125C106.188 39.25 105.354 39.3125 104.438 39.3125C104.104 39.3125 103.792 39.3125 103.5 39.3125C103.208 39.2708 102.896 39.2292 102.562 39.1875L101.938 39.0625C101.854 38.6042 101.771 38.3542 101.688 38.3125C101.604 38.2292 101.521 38.1458 101.438 38.0625C101.229 37.8542 101 37.5833 100.75 37.25C100.542 36.875 100.5 36.4167 100.625 35.875C100.417 35.5 100.292 35.125 100.25 34.75C100 35.25 99.8125 35.7708 99.6875 36.3125L99.4375 36.9375L98.8125 37.0625C98.7292 37.1042 98.6667 37.2083 98.625 37.375C98.5833 37.5 98.5625 37.6042 98.5625 37.6875L98.25 38.75C98.1667 38.8333 98.0833 38.9167 98 39C97.9167 39.0417 97.8333 39.1042 97.75 39.1875C97.6667 39.5625 97.5625 39.9375 97.4375 40.3125C97.3125 40.6875 97.1875 41.0417 97.0625 41.375C96.8542 41.9167 96.6667 42.4583 96.5 43C96.375 43.5 96.3333 44 96.375 44.5L96.125 45.1875C95.9167 45.4375 95.6875 45.6458 95.4375 45.8125C95.1875 45.9375 94.9375 46.0625 94.6875 46.1875C94.6042 46.2708 94.4792 46.3542 94.3125 46.4375C94.1875 46.4792 94.0833 46.5208 94 46.5625L93.8125 47.25L93.0625 47.375C92.6042 47.4583 92.2708 47.5208 92.0625 47.5625C91.8958 47.6042 91.6875 47.625 91.4375 47.625L90.8125 47.5625C90.3542 47.1875 90 46.8958 89.75 46.6875C89.5 46.4375 89.2083 46.2083 88.875 46C88.5 45.5 88.2917 45.125 88.25 44.875C88.2083 44.625 88.1667 44.3958 88.125 44.1875C88.0417 43.9375 88 43.7292 88 43.5625C87.9583 43.3958 87.8958 43.2708 87.8125 43.1875L87 42.4375L87.6875 41.875L87.75 40.8125C88.5833 38.6875 89.4583 36.6458 90.375 34.6875C91.3333 32.7292 92.3125 30.7292 93.3125 28.6875C93.6458 28.0208 93.9583 27.3542 94.25 26.6875C94.5833 26.0208 94.9167 25.3542 95.25 24.6875C95.2083 24.5625 95.1875 24.4167 95.1875 24.25C95.1875 24.0833 95.2292 23.8958 95.3125 23.6875C95.7708 22.9792 96.1458 22.3542 96.4375 21.8125C96.7292 21.2292 97.0208 20.6458 97.3125 20.0625C97.6458 19.3542 97.9792 18.6667 98.3125 18C98.6875 17.3333 99.1458 16.6458 99.6875 15.9375L100.688 15.5C100.812 15.4583 100.958 15.4167 101.125 15.375C101.292 15.2917 101.479 15.25 101.688 15.25L102.625 15.375C103.792 14.8333 104.812 14.0833 105.688 13.125C106.562 12.125 107.458 10.9375 108.375 9.5625L109 8.6875L109.812 9.1875C110.021 9.3125 110.312 9.4375 110.688 9.5625C111.062 9.64583 111.458 9.75 111.875 9.875C112.625 10.0417 113.333 10.2292 114 10.4375C114.667 10.6458 115.208 10.9583 115.625 11.375C115.875 12.0417 116.021 12.5417 116.062 12.875C116.104 13.2083 116.167 13.5417 116.25 13.875C116.375 14.5833 116.479 15.2917 116.562 16C116.688 16.7083 116.771 17.5 116.812 18.375C117.021 19.0833 117.188 19.7917 117.312 20.5C117.479 21.1667 117.625 21.8542 117.75 22.5625C117.958 23.5625 118.167 24.5417 118.375 25.5C118.583 26.4167 118.854 27.2917 119.188 28.125C119.521 28.125 119.729 28.1458 119.812 28.1875C120.021 28.1042 120.229 28.0417 120.438 28C120.688 27.9583 120.958 27.9167 121.25 27.875L121.938 27.8125L122.188 28.4375C122.229 28.6458 122.438 28.8542 122.812 29.0625C123.354 29.1042 123.75 29.2292 124 29.4375C124.25 29.6042 124.479 29.7917 124.688 30C124.854 30.1667 125.021 30.2917 125.188 30.375L126.125 30.75L125.625 31.6875C125.208 32.4375 124.604 33.1667 123.812 33.875C123.062 34.5417 122.208 35.1042 121.25 35.5625C121.292 35.8125 121.312 36.0625 121.312 36.3125C121.354 36.5208 121.417 36.75 121.5 37C121.625 37.7083 121.729 38.4375 121.812 39.1875C121.896 39.9375 121.896 40.7083 121.812 41.5L121.688 41.75ZM103.625 30.9375C104.875 30.8542 106 30.7708 107 30.6875C108.042 30.5625 109.188 30.375 110.438 30.125C110.146 28.875 109.833 27.5833 109.5 26.25C109.167 24.875 108.812 23.5208 108.438 22.1875L108.062 22.8125C107.229 23.6875 106.417 24.6667 105.625 25.75C104.875 26.8333 104.229 27.8542 103.688 28.8125C103.438 29.1875 103.188 29.5625 102.938 29.9375C102.688 30.3125 102.458 30.6875 102.25 31.0625C102.5 31.0208 102.729 31 102.938 31C103.188 31 103.417 30.9792 103.625 30.9375ZM135.875 40.5C135.417 42.1667 135 43.4375 134.625 44.3125C134.292 45.1458 133.771 46.0208 133.062 46.9375C132.521 46.8542 132.146 46.9167 131.938 47.125C131.729 47.3333 131.5 47.5208 131.25 47.6875C130.875 47.7708 130.604 47.7708 130.438 47.6875C130.271 47.6042 130.125 47.5 130 47.375C129.875 47.2917 129.708 47.1875 129.5 47.0625C129.333 46.9792 129.062 46.9375 128.688 46.9375C128.604 46.6042 128.5 46.2917 128.375 46C128.292 45.7083 128.021 45.6042 127.562 45.6875C127.646 45.3542 127.667 45.0833 127.625 44.875C127.583 44.625 127.521 44.4167 127.438 44.25C127.396 44.0417 127.354 43.8542 127.312 43.6875C127.271 43.4792 127.292 43.2292 127.375 42.9375C127.167 42.9375 127 42.7917 126.875 42.5C126.75 42.2083 126.604 41.9167 126.438 41.625C126.562 40.875 126.688 40.1667 126.812 39.5C126.938 38.8333 127.083 38.2083 127.25 37.625C127.458 37.0417 127.625 36.4583 127.75 35.875C127.875 35.2917 127.812 34.6875 127.562 34.0625C127.729 34.1875 127.854 34.1667 127.938 34C128.021 33.7917 128.083 33.5417 128.125 33.25C128.167 32.9167 128.188 32.6042 128.188 32.3125C128.188 31.9792 128.167 31.7083 128.125 31.5C128.542 30.4167 128.875 29.3125 129.125 28.1875C129.417 27.0208 129.667 25.875 129.875 24.75C130.125 23.625 130.375 22.5208 130.625 21.4375C130.875 20.3542 131.208 19.3542 131.625 18.4375C132.083 18.3542 132.583 18.4167 133.125 18.625C133.708 18.7917 134.062 19.0208 134.188 19.3125C135.271 18.4792 136.229 17.4792 137.062 16.3125C137.896 15.1042 138.75 13.9375 139.625 12.8125C140.5 11.6875 141.458 10.6875 142.5 9.8125C143.583 8.9375 144.938 8.41667 146.562 8.25C147.396 8.875 148.312 9.52083 149.312 10.1875C150.354 10.8125 151.208 11.6458 151.875 12.6875C152.208 12.8542 152.479 13.0417 152.688 13.25C152.938 13.4167 153.229 13.6042 153.562 13.8125V14.5625C154.062 15.0208 154.458 15.5625 154.75 16.1875C155.083 16.7708 155.375 17.4167 155.625 18.125C155.875 18.7917 156.125 19.4792 156.375 20.1875C156.625 20.8542 156.917 21.5 157.25 22.125C157.167 22.3333 157.125 22.5208 157.125 22.6875C157.125 22.8125 157.146 22.9583 157.188 23.125C157.271 23.2917 157.333 23.4583 157.375 23.625C157.417 23.7917 157.417 24.0208 157.375 24.3125C157.25 26.1458 156.646 27.625 155.562 28.75C154.521 29.875 153.25 30.8125 151.75 31.5625C150.25 32.2708 148.646 32.875 146.938 33.375C145.229 33.875 143.688 34.4167 142.312 35C142.312 35.1667 142.375 35.25 142.5 35.25C142.667 35.25 142.729 35.3542 142.688 35.5625C143.688 36.1875 144.479 36.6875 145.062 37.0625C145.646 37.4375 146.188 37.75 146.688 38C147.229 38.25 147.792 38.4792 148.375 38.6875C149 38.8542 149.854 39.0625 150.938 39.3125C152.021 39.5625 152.854 39.7708 153.438 39.9375C154.062 40.0625 154.625 40.1875 155.125 40.3125C155.625 40.3958 156.125 40.4792 156.625 40.5625C157.167 40.6042 157.917 40.6667 158.875 40.75C159.25 41.125 159.562 41.5833 159.812 42.125C160.104 42.625 160.292 43.1458 160.375 43.6875C160.458 44.1875 160.479 44.6875 160.438 45.1875C160.396 45.6458 160.25 46.0208 160 46.3125C160.042 46.4375 160.125 46.5 160.25 46.5C160.417 46.4583 160.583 46.4583 160.75 46.5C160.5 46.6667 160.292 46.875 160.125 47.125C159.958 47.375 159.792 47.625 159.625 47.875C159.458 48.125 159.271 48.3333 159.062 48.5C158.854 48.7083 158.562 48.8333 158.188 48.875C156.896 49.375 155.271 49.3958 153.312 48.9375C151.354 48.5208 148.875 47.7292 145.875 46.5625C144.375 45.9792 143.146 45.4792 142.188 45.0625C141.271 44.6042 140.458 44.1667 139.75 43.75C139.083 43.2917 138.458 42.8125 137.875 42.3125C137.333 41.8125 136.667 41.2083 135.875 40.5ZM144.812 19.0625C144.354 19.7292 143.833 20.3333 143.25 20.875C142.708 21.4167 142.167 21.9792 141.625 22.5625C141.125 23.1042 140.667 23.7292 140.25 24.4375C139.833 25.1042 139.542 25.8958 139.375 26.8125C140.833 26.6458 142.354 26.25 143.938 25.625C145.521 24.9583 147.021 24.3333 148.438 23.75C148.271 22.4583 147.812 21.4167 147.062 20.625C146.354 19.8333 145.604 19.3125 144.812 19.0625ZM194.062 16.9375C193.021 16.9375 191.896 17.0208 190.688 17.1875C189.479 17.3125 188.292 17.4583 187.125 17.625C186.292 17.75 185.479 17.8542 184.688 17.9375C183.938 18.0208 183.25 18.0833 182.625 18.125C182.333 19.0417 182.042 19.8542 181.75 20.5625C181.458 21.2708 181.146 21.9583 180.812 22.625C180.479 23.3333 180.167 24.0625 179.875 24.8125C179.625 25.5208 179.375 26.2917 179.125 27.125C178.708 27.7917 178.354 28.4167 178.062 29C177.812 29.5417 177.604 30.1667 177.438 30.875C176.938 31.5 176.562 32.1667 176.312 32.875C176.062 33.5417 175.875 34.125 175.75 34.625L175.5 35.375C175.25 35.625 175.104 35.8333 175.062 36C175.021 36.125 174.917 36.25 174.75 36.375C174.708 36.8333 174.562 37.2917 174.312 37.75C174.229 37.9583 174.167 38.1667 174.125 38.375C174.083 38.5417 174.062 38.6667 174.062 38.75C174.062 39.1667 173.958 39.4375 173.75 39.5625C173.792 39.7708 173.792 40 173.75 40.25C173.708 40.4583 173.667 40.6667 173.625 40.875C173.5 41.375 173.458 41.7708 173.5 42.0625C173.625 42.2292 173.729 42.375 173.812 42.5C173.938 42.625 174.021 42.7917 174.062 43C174.312 43.1667 174.5 43.2708 174.625 43.3125C174.792 43.4375 175.042 43.5833 175.375 43.75L175.938 44.375C176.146 45.5833 175.958 46.5417 175.375 47.25C174.75 48.0417 173.688 48.4375 172.188 48.4375H171.438C171.229 48.2292 171.104 48.0625 171.062 47.9375C170.729 47.8125 170.458 47.7083 170.25 47.625C170.042 47.5417 169.854 47.375 169.688 47.125C169.146 46.875 168.708 46.6667 168.375 46.5L167.812 46.1875C167.812 45.7292 167.812 45.4792 167.812 45.4375C167.521 45.0625 167.292 44.6458 167.125 44.1875C167 43.7292 166.896 43.2708 166.812 42.8125C166.729 42.4375 166.625 42.0833 166.5 41.75C166.417 41.4167 166.292 41.125 166.125 40.875C166.042 38.4583 166.271 36.4167 166.812 34.75C167.354 33.0833 167.917 31.4792 168.5 29.9375C168.833 29.1042 169.167 28.2708 169.5 27.4375C169.833 26.5625 170.125 25.6667 170.375 24.75L170.938 24.125C171.229 23.4583 171.458 22.9167 171.625 22.5C171.833 22.0417 172.042 21.5833 172.25 21.125C172.375 20.8333 172.479 20.5625 172.562 20.3125C172.688 20.0208 172.792 19.7708 172.875 19.5625C172.625 19.5625 172.396 19.5833 172.188 19.625C171.979 19.625 171.771 19.6458 171.562 19.6875C171.312 19.7292 171.083 19.7708 170.875 19.8125C170.667 19.8125 170.458 19.8125 170.25 19.8125C169.958 19.8125 169.75 19.7917 169.625 19.75C169.167 19.9583 168.667 20.0625 168.125 20.0625H167.5C167.375 20.0625 167.25 20.0625 167.125 20.0625C167.042 20.0208 166.958 20 166.875 20C166.458 20 166.125 20.0625 165.875 20.1875C165.375 20.1875 164.896 20.1875 164.438 20.1875H163.812C163.729 20.1875 163.625 20.2083 163.5 20.25C163.375 20.25 163.271 20.25 163.188 20.25C162.896 20.25 162.583 20.2292 162.25 20.1875C161.917 20.1042 161.562 19.9583 161.188 19.75C160.688 19.0833 160.354 18.7292 160.188 18.6875L159.625 17.9375C159.583 17.6875 159.521 17.4583 159.438 17.25C159.354 17 159.271 16.7292 159.188 16.4375C159.021 16.0208 158.854 15.5833 158.688 15.125C158.562 14.625 158.5 14.0417 158.5 13.375C158.542 13.0417 158.625 12.7917 158.75 12.625C158.875 12.4583 158.979 12.3125 159.062 12.1875L159.25 11.25L160.062 11.3125H161.812C163.146 11.3125 164.5 11.2708 165.875 11.1875C167.25 11.0625 168.667 10.9375 170.125 10.8125C170.958 10.7292 171.792 10.6458 172.625 10.5625C173.5 10.4792 174.396 10.3958 175.312 10.3125C175.479 9.9375 175.646 9.58333 175.812 9.25L176.438 8.9375C177.188 8.89583 177.708 9 178 9.25C178.333 9.45833 178.604 9.66667 178.812 9.875C179.729 9.79167 180.646 9.70833 181.562 9.625C182.521 9.5 183.479 9.35417 184.438 9.1875C185.854 8.97917 187.271 8.79167 188.688 8.625C190.146 8.45833 191.542 8.375 192.875 8.375C193.458 8.375 194.021 8.39583 194.562 8.4375C195.104 8.47917 195.604 8.54167 196.062 8.625L196.688 9.0625C196.812 9.3125 196.979 9.54167 197.188 9.75C197.438 9.95833 197.688 10.1667 197.938 10.375C198.438 10.8333 198.938 11.375 199.438 12C199.938 12.625 200.125 13.5417 200 14.75C199.667 15.25 199.417 15.5417 199.25 15.625L198.688 16.375L198.062 16.3125C197.812 16.3125 197.583 16.3542 197.375 16.4375C197.167 16.4792 196.958 16.5417 196.75 16.625C196.583 16.7083 196.417 16.7917 196.25 16.875C196.083 16.9167 195.896 16.9583 195.688 17C195.312 17 195 17 194.75 17C194.542 16.9583 194.312 16.9375 194.062 16.9375ZM212.75 8.25C214.5 8.45833 216.062 8.8125 217.438 9.3125C218.812 9.8125 219.979 10.4792 220.938 11.3125C221.604 12.3542 222.229 13.4792 222.812 14.6875C223.438 15.8958 223.896 17.1667 224.188 18.5C224.521 19.7917 224.667 21.125 224.625 22.5C224.625 23.875 224.333 25.2708 223.75 26.6875C222.542 28.1875 221.062 29.4167 219.312 30.375C217.604 31.2917 215.75 32.0417 213.75 32.625C211.75 33.2083 209.667 33.7083 207.5 34.125C205.375 34.5417 203.292 34.9583 201.25 35.375C201.292 36.3333 201.292 37.3542 201.25 38.4375C201.25 39.4792 201.146 40.5417 200.938 41.625C200.771 42.6667 200.5 43.6875 200.125 44.6875C199.75 45.6875 199.25 46.6042 198.625 47.4375C197.917 47.4375 197.188 47.5208 196.438 47.6875C195.688 47.8958 195.021 48.0625 194.438 48.1875C194.146 48.0208 193.875 47.8542 193.625 47.6875C193.417 47.5625 193.104 47.4792 192.688 47.4375C192.771 47.0208 192.667 46.6042 192.375 46.1875C192.083 45.7292 191.792 45.2708 191.5 44.8125C191.208 44.3542 191 43.9167 190.875 43.5C190.792 43.0833 191 42.6875 191.5 42.3125C191.208 42.0208 191.062 41.6458 191.062 41.1875C191.354 40.6875 191.604 40 191.812 39.125C192.062 38.25 192.25 37.3958 192.375 36.5625C192.542 35.6875 192.583 34.8958 192.5 34.1875C192.417 33.4792 192 32.9583 191.25 32.625C191.292 32.5417 191.375 32.5 191.5 32.5C191.625 32.5 191.75 32.4792 191.875 32.4375C191.542 32.1875 191.333 31.8333 191.25 31.375C191.208 30.9167 191.062 30.5208 190.812 30.1875C190.896 29.9792 190.958 29.7917 191 29.625C191.042 29.4583 191.188 29.3958 191.438 29.4375C191.312 28.6875 191.312 27.9792 191.438 27.3125C191.604 26.6458 191.833 26.0208 192.125 25.4375C192.417 24.8125 192.771 24.2083 193.188 23.625C193.604 23.0417 194 22.4583 194.375 21.875C194.667 21.8333 194.833 21.875 194.875 22C194.958 22.125 195.104 22.1042 195.312 21.9375C195.854 21.5208 196.229 21.0833 196.438 20.625C196.646 20.1667 196.75 19.6458 196.75 19.0625C197.042 18.1875 197.396 17.3125 197.812 16.4375C198.229 15.5208 198.688 14.6875 199.188 13.9375C199.688 13.1875 200.229 12.5208 200.812 11.9375C201.438 11.3542 202.083 10.9167 202.75 10.625C203.25 10.2083 203.875 9.83333 204.625 9.5C205.375 9.125 206.188 8.85417 207.062 8.6875C207.938 8.47917 208.812 8.375 209.688 8.375C210.604 8.33333 211.438 8.41667 212.188 8.625C212.396 8.70833 212.5 8.66667 212.5 8.5C212.542 8.33333 212.625 8.25 212.75 8.25ZM210.188 23.1875C211.229 22.7292 212.333 22.375 213.5 22.125C214.708 21.8333 215.708 21.3125 216.5 20.5625C216 20.1042 215.271 19.7083 214.312 19.375C213.354 19 212.312 18.7708 211.188 18.6875C210.062 18.6042 208.917 18.7083 207.75 19C206.625 19.25 205.646 19.75 204.812 20.5C204.562 21.25 204.354 21.8542 204.188 22.3125C204.021 22.7292 203.792 23.25 203.5 23.875C203.583 24.0833 203.708 24.25 203.875 24.375C204.083 24.4583 204.229 24.6042 204.312 24.8125C205.271 24.3125 206.229 24.0417 207.188 24C208.188 23.9167 209.188 23.6458 210.188 23.1875ZM254.75 40.9375C254.833 42.0208 254.708 42.9167 254.375 43.625C254.042 44.3333 253.583 44.9375 253 45.4375C252.417 45.9375 251.75 46.3333 251 46.625C250.25 46.9167 249.521 47.1875 248.812 47.4375C248.479 47.2292 248.146 47.0208 247.812 46.8125C247.521 46.5625 247.167 46.375 246.75 46.25C246.208 45.25 245.688 44.375 245.188 43.625C244.688 42.8333 244.458 41.9375 244.5 40.9375C244.5 40.8958 244.521 40.6667 244.562 40.25C244.646 39.8333 244.729 39.375 244.812 38.875C244.938 38.375 245.021 37.9167 245.062 37.5C245.146 37.0417 245.188 36.7917 245.188 36.75C244.229 36.8333 243.229 37.0417 242.188 37.375C241.146 37.7083 240.125 38.1042 239.125 38.5625C238.167 39.0208 237.25 39.4792 236.375 39.9375C235.542 40.3958 234.854 40.7917 234.312 41.125C234.312 41.25 234.229 41.5625 234.062 42.0625C233.896 42.5208 233.688 43.0208 233.438 43.5625C233.188 44.0625 232.917 44.5208 232.625 44.9375C232.333 45.3542 232.042 45.5625 231.75 45.5625C231.792 45.6875 231.854 45.8125 231.938 45.9375C232.021 46.0625 232.021 46.2292 231.938 46.4375C231.354 46.6042 230.833 46.8125 230.375 47.0625C229.917 47.3542 229.438 47.5833 228.938 47.75C228.438 47.9583 227.896 48.0625 227.312 48.0625C226.729 48.0625 226.042 47.8542 225.25 47.4375C225.25 47.1875 225.146 46.9792 224.938 46.8125C224.729 46.6042 224.5 46.4375 224.25 46.3125C224.042 46.1458 223.854 46.0208 223.688 45.9375C223.521 45.8125 223.438 45.7083 223.438 45.625C223.229 45.6667 223.146 45.5208 223.188 45.1875C223.229 44.8542 223.396 44.7708 223.688 44.9375C223.229 44.3542 222.938 43.8542 222.812 43.4375C222.729 42.9792 222.5 42.4167 222.125 41.75C222.208 41.6667 222.292 41.5208 222.375 41.3125C222.417 41.1042 222.458 40.9167 222.5 40.75C222.542 40.5833 222.604 40.4583 222.688 40.375C222.771 40.2917 222.875 40.3125 223 40.4375C222.917 40.0625 222.917 39.75 223 39.5C223.083 39.25 223.167 39.0208 223.25 38.8125C223.333 38.6042 223.396 38.3958 223.438 38.1875C223.479 37.9792 223.417 37.75 223.25 37.5C223.917 36.5833 224.354 35.6042 224.562 34.5625C224.771 33.4792 224.896 32.5 224.938 31.625C225.229 31.3333 225.479 30.9167 225.688 30.375C225.938 29.8333 226.125 29.2917 226.25 28.75C226.375 28.1667 226.417 27.625 226.375 27.125C226.375 26.5833 226.312 26.1458 226.188 25.8125C226.229 25.6042 226.458 25.5417 226.875 25.625C227.125 24.25 227.292 22.7083 227.375 21C227.5 19.25 227.688 17.6042 227.938 16.0625C228.188 14.4792 228.604 13.1042 229.188 11.9375C229.771 10.7292 230.708 9.9375 232 9.5625C232.25 10.4375 232.562 11.2083 232.938 11.875C233.354 12.5417 233.792 13.1875 234.25 13.8125C234.75 14.3958 235.229 15 235.688 15.625C236.188 16.25 236.646 16.9583 237.062 17.75C237.021 18.5417 236.938 19.4583 236.812 20.5C236.688 21.5417 236.521 22.6042 236.312 23.6875C236.146 24.7708 235.958 25.8125 235.75 26.8125C235.583 27.8125 235.417 28.6667 235.25 29.375C235.292 29.5833 235.396 29.7083 235.562 29.75C235.771 29.7917 235.812 29.9792 235.688 30.3125C236.688 30.0625 237.729 29.8333 238.812 29.625C239.896 29.4167 240.979 29.1875 242.062 28.9375C243.146 28.6875 244.188 28.4167 245.188 28.125C246.229 27.7917 247.188 27.3958 248.062 26.9375C248.271 25.3125 248.542 23.6875 248.875 22.0625C249.208 20.4375 249.25 18.7708 249 17.0625C249.208 16.8958 249.375 16.6875 249.5 16.4375C249.625 16.1875 249.833 16.0208 250.125 15.9375C249.917 15.1458 249.833 14.3125 249.875 13.4375C249.917 12.5625 250.062 11.7292 250.312 10.9375C250.604 10.1458 251 9.47917 251.5 8.9375C252.042 8.35417 252.688 7.97917 253.438 7.8125C253.896 8.47917 254.292 9.20833 254.625 10C254.958 10.75 255.292 11.5208 255.625 12.3125C256 13.0625 256.375 13.7917 256.75 14.5C257.167 15.1667 257.688 15.75 258.312 16.25C258.438 17.4583 258.521 18.7083 258.562 20C258.646 21.2917 258.708 22.6042 258.75 23.9375C258.417 25.5208 258.042 27.0625 257.625 28.5625C257.25 30.0208 256.979 31.5833 256.812 33.25C256.521 33.5833 256.292 33.9583 256.125 34.375C255.958 34.7917 255.792 35.2292 255.625 35.6875C255.458 36.1042 255.271 36.5208 255.062 36.9375C254.854 37.3125 254.604 37.6458 254.312 37.9375C254.479 38.4375 254.5 38.9167 254.375 39.375C254.292 39.7917 254.417 40.3125 254.75 40.9375ZM296.438 28.25C296.396 28.75 296.438 29.2292 296.562 29.6875C296.688 30.1458 296.833 30.6042 297 31.0625C297.208 31.4792 297.396 31.9167 297.562 32.375C297.729 32.8333 297.854 33.2917 297.938 33.75C298.021 34.3333 298.021 34.9792 297.938 35.6875C297.854 36.3542 297.708 37.0208 297.5 37.6875C297.292 38.3125 297.021 38.8958 296.688 39.4375C296.354 39.9375 295.958 40.3125 295.5 40.5625C294.917 41.3125 294.208 41.8958 293.375 42.3125C292.542 42.7292 291.771 43.2292 291.062 43.8125C290.604 44.1042 290.083 44.3125 289.5 44.4375C288.958 44.5625 288.396 44.6875 287.812 44.8125C287.354 45.0625 286.812 45.3333 286.188 45.625C285.562 45.875 284.917 46.125 284.25 46.375C283.583 46.5833 282.917 46.75 282.25 46.875C281.583 46.9583 281 46.9792 280.5 46.9375C279.25 47.3958 278.021 47.6875 276.812 47.8125C275.646 47.9792 274.271 47.8958 272.688 47.5625C271.188 47.7708 269.792 47.7083 268.5 47.375C267.25 47.0417 266.125 46.5208 265.125 45.8125C264.167 45.0625 263.312 44.1875 262.562 43.1875C261.854 42.1458 261.271 41.0625 260.812 39.9375C260.479 37.5625 260.562 35.4167 261.062 33.5C261.562 31.5417 262.271 29.75 263.188 28.125C264.146 26.4583 265.229 24.9375 266.438 23.5625C267.646 22.1458 268.812 20.7708 269.938 19.4375C270.188 19.5208 270.375 19.5208 270.5 19.4375C270.667 19.3125 270.812 19.1667 270.938 19C271.062 18.7917 271.188 18.6042 271.312 18.4375C271.479 18.2708 271.667 18.1667 271.875 18.125C272.167 17.5 272.583 17.0417 273.125 16.75C273.708 16.4167 274.167 15.9583 274.5 15.375C274.875 15.2917 275.188 15.1667 275.438 15C275.688 14.8333 275.917 14.6458 276.125 14.4375C276.375 14.2292 276.625 14.0417 276.875 13.875C277.125 13.6667 277.417 13.5208 277.75 13.4375V12.75C278.5 12.4167 279.042 12.0417 279.375 11.625C279.75 11.1667 280.188 10.625 280.688 10C281.062 9.95833 281.354 9.9375 281.562 9.9375C281.812 9.9375 282.167 9.89583 282.625 9.8125C282.958 9.22917 283.25 8.79167 283.5 8.5C283.792 8.20833 284.208 7.89583 284.75 7.5625C285.25 7.8125 285.792 7.97917 286.375 8.0625C287 8.14583 287.542 8.41667 288 8.875C288.042 9.29167 288.167 9.625 288.375 9.875C288.583 10.0833 288.812 10.2917 289.062 10.5C289.312 10.6667 289.542 10.8542 289.75 11.0625C290 11.2708 290.167 11.5625 290.25 11.9375C290.417 11.9792 290.521 11.9583 290.562 11.875C290.646 11.7917 290.771 11.7708 290.938 11.8125C291.062 12.3958 291.208 12.7917 291.375 13C291.542 13.1667 291.708 13.5208 291.875 14.0625C291.667 14.4792 291.5 14.9167 291.375 15.375C291.292 15.7917 291.042 16.1042 290.625 16.3125C290.583 16.6042 290.667 16.7708 290.875 16.8125C291.083 16.8125 291.208 16.9167 291.25 17.125C291.292 17.5 291.229 17.7708 291.062 17.9375C292.062 19.5625 292.958 21.2917 293.75 23.125C294.542 24.9167 295.438 26.625 296.438 28.25ZM288.625 34.1875C288.792 33.7292 289 33.3542 289.25 33.0625C289.542 32.7708 289.708 32.3333 289.75 31.75C289.542 31.4167 289.417 31.1667 289.375 31C289.333 30.7917 289.312 30.4792 289.312 30.0625C288.396 28.7708 287.604 27.3958 286.938 25.9375C286.271 24.4375 285.521 23.0417 284.688 21.75C284.604 21.9167 284.458 22.0833 284.25 22.25C284.042 22.4167 283.812 22.375 283.562 22.125C283.479 22.4583 283.333 22.7083 283.125 22.875C282.917 23 282.688 23.0625 282.438 23.0625C282.188 23.0208 281.917 22.9583 281.625 22.875C281.375 22.75 281.146 22.6042 280.938 22.4375C279.729 23.3958 278.521 24.3333 277.312 25.25C276.104 26.1667 275.021 27.2292 274.062 28.4375C273.896 28.5208 273.792 28.5625 273.75 28.5625C273.708 28.5208 273.583 28.5417 273.375 28.625C273.042 29.4167 272.625 30.1458 272.125 30.8125C271.667 31.4375 271.208 32.0833 270.75 32.75C270.292 33.4167 269.896 34.125 269.562 34.875C269.229 35.625 269.042 36.5 269 37.5C269.708 38.0833 270.542 38.4375 271.5 38.5625C272.458 38.6875 273.438 38.7083 274.438 38.625C275.479 38.5417 276.479 38.4167 277.438 38.25C278.438 38.0417 279.354 37.9375 280.188 37.9375C281.938 37.5208 283.438 36.9792 284.688 36.3125C285.938 35.6042 287.25 34.8958 288.625 34.1875ZM313.062 35.625C312.688 35.7083 312.417 35.9375 312.25 36.3125C312.083 36.6458 311.917 37 311.75 37.375C311.625 37.75 311.479 38.1042 311.312 38.4375C311.188 38.7292 310.979 38.875 310.688 38.875C310.646 39.2083 310.521 39.5 310.312 39.75C310.146 40 309.979 40.2708 309.812 40.5625C309.646 40.8125 309.521 41.1042 309.438 41.4375C309.354 41.7292 309.396 42.0833 309.562 42.5C309.229 42.75 309.021 43.1042 308.938 43.5625C308.854 44.0208 308.75 44.4583 308.625 44.875C308.542 45.2917 308.375 45.6458 308.125 45.9375C307.875 46.2292 307.417 46.3542 306.75 46.3125C306.625 46.4792 306.604 46.5833 306.688 46.625C306.771 46.6667 306.833 46.8125 306.875 47.0625C306.417 46.9792 306.062 47 305.812 47.125C305.604 47.2917 305.333 47.3958 305 47.4375C304.208 47.1875 303.542 46.75 303 46.125C302.5 45.5 302.042 44.8125 301.625 44.0625C301.25 43.2708 300.896 42.4792 300.562 41.6875C300.271 40.8958 299.979 40.2083 299.688 39.625C299.812 39.1667 299.833 38.7292 299.75 38.3125C299.667 37.8542 299.521 37.4792 299.312 37.1875C301.354 32.8542 303.583 28.2292 306 23.3125C308.417 18.3958 310.708 13.5417 312.875 8.75C313.833 9.125 314.771 9.5625 315.688 10.0625C316.646 10.5208 317.5 11.0625 318.25 11.6875C319.042 12.3125 319.708 13.0417 320.25 13.875C320.792 14.6667 321.146 15.5625 321.312 16.5625C321.229 16.8125 321.125 16.9167 321 16.875C320.917 16.7917 320.833 16.8125 320.75 16.9375C320.917 17.1458 321 17.2917 321 17.375C321.042 17.4583 321.042 17.5417 321 17.625C321 17.7083 321 17.8333 321 18C321 18.125 321.062 18.3125 321.188 18.5625C321.021 18.5208 320.896 18.5417 320.812 18.625C320.771 18.7083 320.646 18.7083 320.438 18.625C320.604 19.0833 320.646 19.4583 320.562 19.75C320.521 20.0417 320.438 20.3125 320.312 20.5625C320.188 20.7708 320.083 21.0208 320 21.3125C319.917 21.5625 319.938 21.8958 320.062 22.3125C319.938 22.3125 319.833 22.3542 319.75 22.4375C319.708 22.4792 319.667 22.5417 319.625 22.625C319.583 22.6667 319.521 22.7292 319.438 22.8125C319.396 22.8542 319.312 22.8542 319.188 22.8125C319.312 23.7292 319.354 24.6458 319.312 25.5625C319.271 26.4792 319.229 27.4167 319.188 28.375C319.188 29.2917 319.208 30.2708 319.25 31.3125C319.292 32.3125 319.438 33.3542 319.688 34.4375C321.188 33.5625 322.375 32.4375 323.25 31.0625C324.167 29.6875 324.896 28.1458 325.438 26.4375C326.021 24.7292 326.458 22.8958 326.75 20.9375C327.042 18.9792 327.354 16.9792 327.688 14.9375C328.062 14.5625 328.354 14.1042 328.562 13.5625C328.771 13.0208 328.958 12.4583 329.125 11.875C329.292 11.25 329.458 10.6458 329.625 10.0625C329.792 9.4375 330 8.875 330.25 8.375C330.875 8.45833 331.396 8.66667 331.812 9C332.271 9.29167 332.688 9.625 333.062 10C333.438 10.3333 333.833 10.6667 334.25 11C334.667 11.2917 335.188 11.4792 335.812 11.5625C336.312 12.2708 336.771 12.9583 337.188 13.625C337.604 14.2917 337.875 15 338 15.75C337.792 16.0833 337.625 16.4583 337.5 16.875C337.417 17.2917 337.312 17.7083 337.188 18.125C337.062 18.5417 336.896 18.9375 336.688 19.3125C336.479 19.6458 336.188 19.9375 335.812 20.1875C335.688 21.2708 335.521 22.2708 335.312 23.1875C335.146 24.0625 334.958 24.9375 334.75 25.8125C334.583 26.6875 334.438 27.6042 334.312 28.5625C334.188 29.4792 334.146 30.5 334.188 31.625C333.854 32.5833 333.5 33.6042 333.125 34.6875C332.75 35.7708 332.458 36.75 332.25 37.625C331.583 38.1667 331.062 38.8125 330.688 39.5625C330.312 40.3125 329.917 41.0625 329.5 41.8125C329.333 41.9792 329.229 42.0208 329.188 41.9375C329.146 41.8542 329 41.7917 328.75 41.75C328.792 41.9167 328.792 42.0417 328.75 42.125C328.708 42.2083 328.646 42.2917 328.562 42.375C328.521 42.4167 328.479 42.5 328.438 42.625C328.438 42.75 328.479 42.9167 328.562 43.125C327.979 43.375 327.458 43.7292 327 44.1875C326.542 44.6458 326.042 45.0625 325.5 45.4375C325 45.8125 324.375 46.0625 323.625 46.1875C322.917 46.3125 321.979 46.1667 320.812 45.75C319.104 44.5 317.583 43.0625 316.25 41.4375C314.958 39.8125 313.896 37.875 313.062 35.625ZM371.25 11.8125C371.292 12.1042 371.292 12.3333 371.25 12.5C371.25 12.625 371.229 12.75 371.188 12.875C371.188 13 371.188 13.1458 371.188 13.3125C371.188 13.4375 371.229 13.6458 371.312 13.9375C370.438 15.3542 369.417 16.3333 368.25 16.875C367.125 17.375 365.896 17.75 364.562 18C363.229 18.2083 361.854 18.4375 360.438 18.6875C359.062 18.9375 357.688 19.4792 356.312 20.3125C355.771 20.1042 355.271 20.1042 354.812 20.3125C354.396 20.5208 353.771 20.5833 352.938 20.5C352.688 20.75 352.375 20.9375 352 21.0625C351.625 21.1458 351.25 21.25 350.875 21.375C351.042 21.75 351.104 22.1458 351.062 22.5625C351.062 22.9375 351.125 23.25 351.25 23.5C352.708 23.625 354.312 23.6042 356.062 23.4375C357.854 23.2708 359.604 23.1667 361.312 23.125C361.354 23.3333 361.333 23.4792 361.25 23.5625C361.167 23.6042 361.146 23.7083 361.188 23.875C361.479 24.0833 361.771 24.3542 362.062 24.6875C362.354 24.9792 362.646 25.2708 362.938 25.5625C363.229 25.8542 363.521 26.1042 363.812 26.3125C364.146 26.4792 364.521 26.5417 364.938 26.5C365.104 26.8333 365.208 27.2083 365.25 27.625C365.333 28 365.292 28.3958 365.125 28.8125C364.458 29.2708 363.792 29.75 363.125 30.25C362.458 30.7083 361.75 31.125 361 31.5C360.292 31.875 359.521 32.1875 358.688 32.4375C357.896 32.6458 357 32.7292 356 32.6875C355.792 32.6875 355.625 32.6875 355.5 32.6875C355.417 32.6875 355.292 32.625 355.125 32.5C354.792 32.7083 354.312 32.7708 353.688 32.6875C353.104 32.6042 352.646 32.6667 352.312 32.875C351.854 32.6667 351.292 32.5833 350.625 32.625C350 32.625 349.438 32.5417 348.938 32.375C348.271 33.25 347.667 34.1875 347.125 35.1875C346.583 36.1875 346.104 37.25 345.688 38.375C347.104 38.5833 348.271 38.6667 349.188 38.625C350.146 38.5833 351.042 38.5208 351.875 38.4375C352.708 38.3125 353.562 38.2083 354.438 38.125C355.312 38 356.417 37.9583 357.75 38C358.583 37.5417 359.562 37.25 360.688 37.125C361.854 36.9583 362.917 36.7083 363.875 36.375C364.208 36.5 364.5 36.7292 364.75 37.0625C365 37.3542 365.229 37.6458 365.438 37.9375C365.688 38.1875 365.938 38.4167 366.188 38.625C366.438 38.8333 366.75 38.9167 367.125 38.875C367.292 39.0417 367.396 39.25 367.438 39.5C367.521 39.7083 367.583 39.9167 367.625 40.125C367.667 40.3333 367.729 40.5208 367.812 40.6875C367.938 40.8125 368.125 40.8542 368.375 40.8125C367.75 42.1875 367.021 43.25 366.188 44C365.396 44.7083 364.479 45.25 363.438 45.625C362.396 46 361.229 46.2917 359.938 46.5C358.688 46.7083 357.292 46.9583 355.75 47.25C355.375 47.3333 355.062 47.3125 354.812 47.1875C354.562 47.1042 354.271 47.0625 353.938 47.0625C352.979 47.2708 351.833 47.4583 350.5 47.625C349.167 47.7917 347.812 47.8542 346.438 47.8125C345.062 47.7708 343.75 47.5833 342.5 47.25C341.25 46.9583 340.229 46.4167 339.438 45.625C339.104 45.3333 338.875 45 338.75 44.625C338.667 44.2083 338.396 43.8958 337.938 43.6875C337.896 43.1458 337.812 42.5417 337.688 41.875C337.562 41.2083 337.438 40.5208 337.312 39.8125C337.188 39.0625 337.083 38.3333 337 37.625C336.958 36.9167 337 36.2708 337.125 35.6875C337.25 35.0625 337.5 34.5 337.875 34C338.292 33.5 338.438 32.9583 338.312 32.375C338.521 32.3333 338.646 32.2292 338.688 32.0625C338.729 31.8542 338.896 31.7708 339.188 31.8125C339.438 31.0625 339.708 30.3542 340 29.6875C340.292 29.0208 340.583 28.375 340.875 27.75C341.208 27.125 341.521 26.5 341.812 25.875C342.146 25.2083 342.458 24.4792 342.75 23.6875C342.167 23.1458 341.729 22.5625 341.438 21.9375C341.188 21.2708 341 20.625 340.875 20C340.75 19.3333 340.646 18.6667 340.562 18C340.479 17.2917 340.333 16.5833 340.125 15.875C340.542 15.25 341.042 14.75 341.625 14.375C342.25 13.9583 342.917 13.625 343.625 13.375C344.333 13.125 345.104 12.9167 345.938 12.75C346.771 12.5833 347.646 12.3958 348.562 12.1875C350.229 11.6458 351.708 11.2292 353 10.9375C354.333 10.6458 355.625 10.4167 356.875 10.25C358.167 10.0417 359.5 9.85417 360.875 9.6875C362.25 9.52083 363.812 9.27083 365.562 8.9375C365.938 9.3125 366.292 9.5 366.625 9.5C366.792 9.125 366.979 9.02083 367.188 9.1875C367.438 9.3125 367.542 9.1875 367.5 8.8125C367.917 9.52083 368.438 10.125 369.062 10.625C369.729 11.0833 370.458 11.4792 371.25 11.8125ZM12.7812 134.062L13.5938 133.438L13.6562 132.125C14.6979 129.583 15.7604 127.146 16.8438 124.812C17.9688 122.479 19.1354 120.083 20.3438 117.625C20.7188 116.833 21.0938 116.042 21.4688 115.25C21.8854 114.458 22.2812 113.646 22.6562 112.812C22.6146 112.646 22.5938 112.479 22.5938 112.312C22.5938 112.104 22.6354 111.875 22.7188 111.625C23.3021 110.792 23.7604 110.042 24.0938 109.375C24.4688 108.708 24.8229 108.021 25.1562 107.312C25.5312 106.479 25.9271 105.646 26.3438 104.812C26.8021 103.979 27.3646 103.167 28.0312 102.375L28.4688 101.75L29.1562 101.812C29.3229 101.729 29.4896 101.667 29.6562 101.625C29.8646 101.542 30.1146 101.5 30.4062 101.5L31.5312 101.688C32.9062 101.062 34.1146 100.167 35.1562 99C36.2396 97.7917 37.3229 96.3542 38.4062 94.6875L39.1562 93.625L40.1562 94.25C40.3646 94.375 40.6979 94.5 41.1562 94.625C41.6146 94.75 42.0938 94.8958 42.5938 95.0625C43.4688 95.2708 44.3229 95.5208 45.1562 95.8125C45.9896 96.0625 46.6354 96.4167 47.0938 96.875L47.4062 97.4375C47.4896 97.8958 47.5521 98.3125 47.5938 98.6875C47.6771 99.0625 47.7604 99.4375 47.8438 99.8125C48.0104 100.688 48.1562 101.562 48.2812 102.438C48.4062 103.271 48.4896 104.208 48.5312 105.25C48.7396 106.083 48.9271 106.938 49.0938 107.812C49.3021 108.646 49.4896 109.479 49.6562 110.312C49.8646 111.521 50.0938 112.688 50.3438 113.812C50.5938 114.896 50.9271 115.938 51.3438 116.938C51.7604 116.938 52.0104 116.958 52.0938 117C52.5938 116.792 53.1771 116.667 53.8438 116.625L54.6562 116.562L54.9062 117.312C54.9896 117.438 55.0938 117.562 55.2188 117.688C55.3438 117.812 55.4896 117.938 55.6562 118.062C56.3229 118.104 56.8021 118.25 57.0938 118.5C57.4271 118.708 57.6979 118.917 57.9062 119.125C57.9896 119.208 58.0938 119.312 58.2188 119.438C58.3438 119.521 58.4479 119.583 58.5312 119.625L59.6562 120.062L59.0312 121.25C58.5729 122.125 57.8646 122.979 56.9062 123.812C55.9896 124.646 54.9479 125.333 53.7812 125.875C53.8646 126.167 53.9062 126.438 53.9062 126.688C53.9479 126.938 54.0104 127.229 54.0938 127.562C54.2604 128.396 54.3854 129.271 54.4688 130.188C54.5938 131.062 54.5938 131.979 54.4688 132.938C54.0521 134.021 53.5521 135 52.9688 135.875C52.4271 136.708 51.7604 137.479 50.9688 138.188C50.2188 138.854 49.3646 139.417 48.4062 139.875C47.4479 140.292 46.4479 140.521 45.4062 140.562C44.8229 140.438 44.3854 140.292 44.0938 140.125C43.8438 139.958 43.6146 139.792 43.4062 139.625C43.0729 139.375 42.8021 139.208 42.5938 139.125L41.7812 138.75L42.0312 137.812C42.1562 137.479 42.1354 137.188 41.9688 136.938C41.8438 136.688 41.5521 136.354 41.0938 135.938C40.9271 135.812 40.7812 135.688 40.6562 135.562C40.5312 135.396 40.3854 135.229 40.2188 135.062L38.9688 133.625L41.0312 133.062C42.2812 132.729 43.1146 132.312 43.5312 131.812C43.9479 131.271 44.1146 130.333 44.0312 129C42.9896 128.792 42.1354 128.771 41.4688 128.938C40.8021 129.062 40.1354 129.208 39.4688 129.375C38.5104 129.625 37.5729 129.854 36.6562 130.062C35.7396 130.229 34.7396 130.312 33.6562 130.312C32.9479 130.312 32.1979 130.25 31.4062 130.125L30.7188 130.062L30.5312 129.375C30.5312 129.292 30.4688 129.208 30.3438 129.125C30.2604 129 30.1771 128.896 30.0938 128.812C29.8854 128.562 29.6354 128.229 29.3438 127.812C29.0521 127.396 28.9896 126.875 29.1562 126.25C28.8646 125.792 28.6979 125.312 28.6562 124.812C28.4896 125.146 28.3438 125.479 28.2188 125.812C28.1354 126.104 28.0521 126.396 27.9688 126.688L27.7188 127.5L26.9062 127.625C26.8229 127.708 26.7396 127.833 26.6562 128C26.6146 128.167 26.6146 128.292 26.6562 128.375L26.9062 129.062L26.2812 129.625C26.1979 129.75 26.0938 129.854 25.9688 129.938C25.8438 130.021 25.7396 130.104 25.6562 130.188C25.5729 130.646 25.4479 131.083 25.2812 131.5C25.1562 131.917 25.0104 132.333 24.8438 132.75C24.6354 133.417 24.4271 134.062 24.2188 134.688C24.0521 135.312 23.9688 135.938 23.9688 136.562L23.7188 137.375C23.5104 137.708 23.2396 137.958 22.9062 138.125C22.6146 138.292 22.3229 138.438 22.0312 138.562C21.6146 138.729 21.3229 138.896 21.1562 139.062L20.9688 139.875L20.0312 140C19.4896 140.125 19.0938 140.208 18.8438 140.25C18.6354 140.292 18.3854 140.312 18.0938 140.312L17.2812 140.25C16.7812 139.75 16.3646 139.375 16.0312 139.125C15.7396 138.833 15.3854 138.583 14.9688 138.375L14.5938 137.875C14.4271 137.542 14.3229 137.25 14.2812 137C14.2396 136.708 14.1771 136.417 14.0938 136.125C14.0104 135.583 13.8854 135.208 13.7188 135L12.7812 134.062ZM32.7188 117.812C32.1354 118.646 31.5729 119.521 31.0312 120.438C31.3229 120.396 31.5938 120.375 31.8438 120.375C32.1354 120.375 32.4271 120.354 32.7188 120.312C34.1771 120.229 35.5312 120.125 36.7812 120C38.0312 119.875 39.3854 119.667 40.8438 119.375C40.5104 117.833 40.1354 116.271 39.7188 114.688C39.3438 113.062 38.9271 111.438 38.4688 109.812L38.1562 110.438C37.1146 111.562 36.1146 112.771 35.1562 114.062C34.1979 115.354 33.4062 116.583 32.7812 117.75L32.7188 117.812ZM90.1562 123.125C90.1146 123.333 90.0729 123.521 90.0312 123.688C89.9896 123.812 89.9479 123.938 89.9062 124.062C89.8646 124.188 89.8438 124.354 89.8438 124.562C89.8438 124.729 89.8438 124.958 89.8438 125.25C88.5938 127.458 87.0104 129.312 85.0938 130.812C83.2188 132.312 81.1354 133.646 78.8438 134.812C76.5938 135.938 74.2396 136.979 71.7812 137.938C69.3229 138.854 66.9271 139.854 64.5938 140.938C63.5938 140.688 62.8229 140.271 62.2812 139.688C61.7812 139.104 61.3854 138.438 61.0938 137.688C60.8438 136.896 60.6562 136.042 60.5312 135.125C60.4479 134.167 60.3646 133.188 60.2812 132.188C60.4062 131.729 60.5729 131.354 60.7812 131.062C61.0312 130.729 61.1562 130.271 61.1562 129.688C61.4896 128.604 61.8229 127.542 62.1562 126.5C62.4896 125.458 62.6979 124.396 62.7812 123.312C62.9062 122.979 63.1354 122.75 63.4688 122.625C63.6771 120.625 63.6771 118.604 63.4688 116.562C63.3021 114.479 62.9688 112.542 62.4688 110.75C62.5104 110.333 62.5521 110.042 62.5938 109.875C62.6771 109.667 62.6771 109.521 62.5938 109.438C62.5521 109.104 62.6562 108.938 62.9062 108.938C63.1979 108.938 63.4896 108.938 63.7812 108.938C63.7812 108.312 63.6562 107.688 63.4062 107.062C63.1979 106.438 62.9896 105.729 62.7812 104.938C63.0729 104.312 63.2604 103.708 63.3438 103.125C63.4271 102.5 63.6146 101.958 63.9062 101.5C66.1562 102.208 68.3021 103.062 70.3438 104.062C72.4271 105.062 74.4688 105.792 76.4688 106.25C77.9688 107.333 79.5104 108.417 81.0938 109.5C82.6771 110.542 84.1146 111.708 85.4062 113C86.6979 114.25 87.7812 115.688 88.6562 117.312C89.5312 118.938 90.0312 120.875 90.1562 123.125ZM75.3438 126.562C76.2188 126.229 77.0729 125.875 77.9062 125.5C78.7812 125.125 79.5729 124.708 80.2812 124.25C81.0312 123.75 81.6979 123.188 82.2812 122.562C82.8646 121.938 83.3438 121.188 83.7188 120.312C83.4688 119.812 83.1354 119.375 82.7188 119C82.3021 118.583 81.8854 118.208 81.4688 117.875C81.0521 117.5 80.6354 117.125 80.2188 116.75C79.8438 116.375 79.5312 115.917 79.2812 115.375C78.7396 115.292 78.2604 115.146 77.8438 114.938C77.4271 114.688 77.0104 114.458 76.5938 114.25C76.2188 114 75.8021 113.771 75.3438 113.562C74.9271 113.354 74.4271 113.229 73.8438 113.188C72.9271 112.729 72.0938 112.396 71.3438 112.188C70.6354 111.979 70.0938 111.708 69.7188 111.375C69.4271 111.375 69.1979 111.438 69.0312 111.562C69.4479 113.146 69.7604 114.646 69.9688 116.062C70.1771 117.438 70.2812 118.833 70.2812 120.25C70.3229 121.625 70.2604 123.042 70.0938 124.5C69.9271 125.958 69.6979 127.542 69.4062 129.25C69.8229 129.208 70.1979 129.125 70.5312 129C70.9062 128.833 71.2604 128.667 71.5938 128.5C71.9688 128.333 72.3438 128.188 72.7188 128.062C73.1354 127.896 73.6146 127.792 74.1562 127.75C74.2812 127.5 74.4479 127.292 74.6562 127.125C74.9062 126.958 75.1354 126.771 75.3438 126.562ZM110.031 129C109.99 129.583 109.844 130.146 109.594 130.688C109.385 131.188 109.115 131.688 108.781 132.188C108.448 132.646 108.073 133.104 107.656 133.562C107.281 133.979 106.906 134.354 106.531 134.688C106.656 135.229 106.656 135.646 106.531 135.938C106.448 136.188 106.427 136.583 106.469 137.125C105.844 138.792 104.885 139.896 103.594 140.438C102.344 141.021 101.156 140.917 100.031 140.125C99.5729 139.792 99.1771 139.375 98.8438 138.875C98.5521 138.333 98.1354 138 97.5938 137.875C97.7188 137.167 97.6562 136.458 97.4062 135.75C97.1562 135.042 96.8854 134.667 96.5938 134.625C96.4688 133.75 96.2812 132.812 96.0312 131.812C95.7812 130.812 95.5521 129.812 95.3438 128.812C95.1354 127.771 94.9479 126.771 94.7812 125.812C94.6562 124.812 94.6146 123.896 94.6562 123.062C94.6979 122.646 94.6146 122.271 94.4062 121.938C94.2396 121.604 94.1146 121.208 94.0312 120.75C93.8646 119.792 93.8021 118.792 93.8438 117.75C93.9271 116.667 93.9688 115.646 93.9688 114.688C93.9688 113.771 93.9062 112.792 93.7812 111.75C93.6979 110.667 93.6146 109.646 93.5312 108.688C93.4479 107.688 93.4062 106.792 93.4062 106C93.4062 105.167 93.5104 104.521 93.7188 104.062C93.9688 103.562 94.3021 103.167 94.7188 102.875C95.1771 102.542 95.5938 102.188 95.9688 101.812C96.8854 101.896 97.6146 102.271 98.1562 102.938C98.6979 103.604 98.9062 104.229 98.7812 104.812C99.6562 105.354 100.344 106.062 100.844 106.938C101.385 107.771 101.802 108.729 102.094 109.812C102.427 110.854 102.656 111.979 102.781 113.188C102.906 114.354 103.01 115.521 103.094 116.688C103.177 117.812 103.26 118.896 103.344 119.938C103.427 120.979 103.594 121.875 103.844 122.625C105.385 120.417 106.677 118.458 107.719 116.75C108.76 115 109.823 113.333 110.906 111.75C111.99 110.167 113.198 108.562 114.531 106.938C115.865 105.312 117.594 103.479 119.719 101.438C120.135 101.479 120.469 101.562 120.719 101.688C121.01 101.812 121.26 101.917 121.469 102C121.677 102.083 121.927 102.167 122.219 102.25C122.51 102.292 122.906 102.271 123.406 102.188C123.573 102.604 123.698 102.917 123.781 103.125C123.865 103.292 123.927 103.479 123.969 103.688C124.052 103.854 124.135 104.083 124.219 104.375C124.344 104.667 124.531 105.083 124.781 105.625C124.906 105.75 124.948 105.917 124.906 106.125C124.865 106.333 124.823 106.542 124.781 106.75C124.781 106.917 124.781 107.042 124.781 107.125C124.781 107.208 124.885 107.208 125.094 107.125C124.969 107.708 124.74 108.25 124.406 108.75C124.115 109.208 123.99 109.771 124.031 110.438C123.073 111.688 122.01 112.979 120.844 114.312C119.719 115.646 118.573 117.021 117.406 118.438C116.281 119.854 115.198 121.354 114.156 122.938C113.115 124.479 112.219 126.104 111.469 127.812C111.26 127.812 111.094 127.875 110.969 128C110.885 128.125 110.802 128.271 110.719 128.438C110.635 128.562 110.531 128.688 110.406 128.812C110.323 128.938 110.198 129 110.031 129ZM155.156 104.812C155.198 105.104 155.198 105.333 155.156 105.5C155.156 105.625 155.135 105.75 155.094 105.875C155.094 106 155.094 106.146 155.094 106.312C155.094 106.438 155.135 106.646 155.219 106.938C154.344 108.354 153.323 109.333 152.156 109.875C151.031 110.375 149.802 110.75 148.469 111C147.135 111.208 145.76 111.438 144.344 111.688C142.969 111.938 141.594 112.479 140.219 113.312C139.677 113.104 139.177 113.104 138.719 113.312C138.302 113.521 137.677 113.583 136.844 113.5C136.594 113.75 136.281 113.938 135.906 114.062C135.531 114.146 135.156 114.25 134.781 114.375C134.948 114.75 135.01 115.146 134.969 115.562C134.969 115.938 135.031 116.25 135.156 116.5C136.615 116.625 138.219 116.604 139.969 116.438C141.76 116.271 143.51 116.167 145.219 116.125C145.26 116.333 145.24 116.479 145.156 116.562C145.073 116.604 145.052 116.708 145.094 116.875C145.385 117.083 145.677 117.354 145.969 117.688C146.26 117.979 146.552 118.271 146.844 118.562C147.135 118.854 147.427 119.104 147.719 119.312C148.052 119.479 148.427 119.542 148.844 119.5C149.01 119.833 149.115 120.208 149.156 120.625C149.24 121 149.198 121.396 149.031 121.812C148.365 122.271 147.698 122.75 147.031 123.25C146.365 123.708 145.656 124.125 144.906 124.5C144.198 124.875 143.427 125.188 142.594 125.438C141.802 125.646 140.906 125.729 139.906 125.688C139.698 125.688 139.531 125.688 139.406 125.688C139.323 125.688 139.198 125.625 139.031 125.5C138.698 125.708 138.219 125.771 137.594 125.688C137.01 125.604 136.552 125.667 136.219 125.875C135.76 125.667 135.198 125.583 134.531 125.625C133.906 125.625 133.344 125.542 132.844 125.375C132.177 126.25 131.573 127.188 131.031 128.188C130.49 129.188 130.01 130.25 129.594 131.375C131.01 131.583 132.177 131.667 133.094 131.625C134.052 131.583 134.948 131.521 135.781 131.438C136.615 131.312 137.469 131.208 138.344 131.125C139.219 131 140.323 130.958 141.656 131C142.49 130.542 143.469 130.25 144.594 130.125C145.76 129.958 146.823 129.708 147.781 129.375C148.115 129.5 148.406 129.729 148.656 130.062C148.906 130.354 149.135 130.646 149.344 130.938C149.594 131.188 149.844 131.417 150.094 131.625C150.344 131.833 150.656 131.917 151.031 131.875C151.198 132.042 151.302 132.25 151.344 132.5C151.427 132.708 151.49 132.917 151.531 133.125C151.573 133.333 151.635 133.521 151.719 133.688C151.844 133.812 152.031 133.854 152.281 133.812C151.656 135.188 150.927 136.25 150.094 137C149.302 137.708 148.385 138.25 147.344 138.625C146.302 139 145.135 139.292 143.844 139.5C142.594 139.708 141.198 139.958 139.656 140.25C139.281 140.333 138.969 140.312 138.719 140.188C138.469 140.104 138.177 140.062 137.844 140.062C136.885 140.271 135.74 140.458 134.406 140.625C133.073 140.792 131.719 140.854 130.344 140.812C128.969 140.771 127.656 140.583 126.406 140.25C125.156 139.958 124.135 139.417 123.344 138.625C123.01 138.333 122.781 138 122.656 137.625C122.573 137.208 122.302 136.896 121.844 136.688C121.802 136.146 121.719 135.542 121.594 134.875C121.469 134.208 121.344 133.521 121.219 132.812C121.094 132.062 120.99 131.333 120.906 130.625C120.865 129.917 120.906 129.271 121.031 128.688C121.156 128.062 121.406 127.5 121.781 127C122.198 126.5 122.344 125.958 122.219 125.375C122.427 125.333 122.552 125.229 122.594 125.062C122.635 124.854 122.802 124.771 123.094 124.812C123.344 124.062 123.615 123.354 123.906 122.688C124.198 122.021 124.49 121.375 124.781 120.75C125.115 120.125 125.427 119.5 125.719 118.875C126.052 118.208 126.365 117.479 126.656 116.688C126.073 116.146 125.635 115.562 125.344 114.938C125.094 114.271 124.906 113.625 124.781 113C124.656 112.333 124.552 111.667 124.469 111C124.385 110.292 124.24 109.583 124.031 108.875C124.448 108.25 124.948 107.75 125.531 107.375C126.156 106.958 126.823 106.625 127.531 106.375C128.24 106.125 129.01 105.917 129.844 105.75C130.677 105.583 131.552 105.396 132.469 105.188C134.135 104.646 135.615 104.229 136.906 103.938C138.24 103.646 139.531 103.417 140.781 103.25C142.073 103.042 143.406 102.854 144.781 102.688C146.156 102.521 147.719 102.271 149.469 101.938C149.844 102.312 150.198 102.5 150.531 102.5C150.698 102.125 150.885 102.021 151.094 102.188C151.344 102.312 151.448 102.188 151.406 101.812C151.823 102.521 152.344 103.125 152.969 103.625C153.635 104.083 154.365 104.479 155.156 104.812ZM166.469 128.625C166.094 128.708 165.823 128.938 165.656 129.312C165.49 129.646 165.323 130 165.156 130.375C165.031 130.75 164.885 131.104 164.719 131.438C164.594 131.729 164.385 131.875 164.094 131.875C164.052 132.208 163.927 132.5 163.719 132.75C163.552 133 163.385 133.271 163.219 133.562C163.052 133.812 162.927 134.104 162.844 134.438C162.76 134.729 162.802 135.083 162.969 135.5C162.635 135.75 162.427 136.104 162.344 136.562C162.26 137.021 162.156 137.458 162.031 137.875C161.948 138.292 161.781 138.646 161.531 138.938C161.281 139.229 160.823 139.354 160.156 139.312C160.031 139.479 160.01 139.583 160.094 139.625C160.177 139.667 160.24 139.812 160.281 140.062C159.823 139.979 159.469 140 159.219 140.125C159.01 140.292 158.74 140.396 158.406 140.438C157.615 140.188 156.948 139.75 156.406 139.125C155.906 138.5 155.448 137.812 155.031 137.062C154.656 136.271 154.302 135.479 153.969 134.688C153.677 133.896 153.385 133.208 153.094 132.625C153.219 132.167 153.24 131.729 153.156 131.312C153.073 130.854 152.927 130.479 152.719 130.188C154.76 125.854 156.99 121.229 159.406 116.312C161.823 111.396 164.115 106.542 166.281 101.75C167.24 102.125 168.177 102.562 169.094 103.062C170.052 103.521 170.906 104.062 171.656 104.688C172.448 105.312 173.115 106.042 173.656 106.875C174.198 107.667 174.552 108.562 174.719 109.562C174.635 109.812 174.531 109.917 174.406 109.875C174.323 109.792 174.24 109.812 174.156 109.938C174.323 110.146 174.406 110.292 174.406 110.375C174.448 110.458 174.448 110.542 174.406 110.625C174.406 110.708 174.406 110.833 174.406 111C174.406 111.125 174.469 111.312 174.594 111.562C174.427 111.521 174.302 111.542 174.219 111.625C174.177 111.708 174.052 111.708 173.844 111.625C174.01 112.083 174.052 112.458 173.969 112.75C173.927 113.042 173.844 113.312 173.719 113.562C173.594 113.771 173.49 114.021 173.406 114.312C173.323 114.562 173.344 114.896 173.469 115.312C173.344 115.312 173.24 115.354 173.156 115.438C173.115 115.479 173.073 115.542 173.031 115.625C172.99 115.667 172.927 115.729 172.844 115.812C172.802 115.854 172.719 115.854 172.594 115.812C172.719 116.729 172.76 117.646 172.719 118.562C172.677 119.479 172.635 120.417 172.594 121.375C172.594 122.292 172.615 123.271 172.656 124.312C172.698 125.312 172.844 126.354 173.094 127.438C174.594 126.562 175.781 125.438 176.656 124.062C177.573 122.688 178.302 121.146 178.844 119.438C179.427 117.729 179.865 115.896 180.156 113.938C180.448 111.979 180.76 109.979 181.094 107.938C181.469 107.562 181.76 107.104 181.969 106.562C182.177 106.021 182.365 105.458 182.531 104.875C182.698 104.25 182.865 103.646 183.031 103.062C183.198 102.438 183.406 101.875 183.656 101.375C184.281 101.458 184.802 101.667 185.219 102C185.677 102.292 186.094 102.625 186.469 103C186.844 103.333 187.24 103.667 187.656 104C188.073 104.292 188.594 104.479 189.219 104.562C189.719 105.271 190.177 105.958 190.594 106.625C191.01 107.292 191.281 108 191.406 108.75C191.198 109.083 191.031 109.458 190.906 109.875C190.823 110.292 190.719 110.708 190.594 111.125C190.469 111.542 190.302 111.938 190.094 112.312C189.885 112.646 189.594 112.938 189.219 113.188C189.094 114.271 188.927 115.271 188.719 116.188C188.552 117.062 188.365 117.938 188.156 118.812C187.99 119.688 187.844 120.604 187.719 121.562C187.594 122.479 187.552 123.5 187.594 124.625C187.26 125.583 186.906 126.604 186.531 127.688C186.156 128.771 185.865 129.75 185.656 130.625C184.99 131.167 184.469 131.812 184.094 132.562C183.719 133.312 183.323 134.062 182.906 134.812C182.74 134.979 182.635 135.021 182.594 134.938C182.552 134.854 182.406 134.792 182.156 134.75C182.198 134.917 182.198 135.042 182.156 135.125C182.115 135.208 182.052 135.292 181.969 135.375C181.927 135.417 181.885 135.5 181.844 135.625C181.844 135.75 181.885 135.917 181.969 136.125C181.385 136.375 180.865 136.729 180.406 137.188C179.948 137.646 179.448 138.062 178.906 138.438C178.406 138.812 177.781 139.062 177.031 139.188C176.323 139.312 175.385 139.167 174.219 138.75C172.51 137.5 170.99 136.062 169.656 134.438C168.365 132.812 167.302 130.875 166.469 128.625ZM225.344 109.938C224.302 109.938 223.177 110.021 221.969 110.188C220.76 110.312 219.573 110.458 218.406 110.625C217.573 110.75 216.76 110.854 215.969 110.938C215.219 111.021 214.531 111.083 213.906 111.125C213.615 112.042 213.323 112.854 213.031 113.562C212.74 114.271 212.427 114.958 212.094 115.625C211.76 116.333 211.448 117.062 211.156 117.812C210.906 118.521 210.656 119.292 210.406 120.125C209.99 120.792 209.635 121.417 209.344 122C209.094 122.542 208.885 123.167 208.719 123.875C208.219 124.5 207.844 125.167 207.594 125.875C207.344 126.542 207.156 127.125 207.031 127.625L206.781 128.375C206.531 128.625 206.385 128.833 206.344 129C206.302 129.125 206.198 129.25 206.031 129.375C205.99 129.833 205.844 130.292 205.594 130.75C205.51 130.958 205.448 131.167 205.406 131.375C205.365 131.542 205.344 131.667 205.344 131.75C205.344 132.167 205.24 132.438 205.031 132.562C205.073 132.771 205.073 133 205.031 133.25C204.99 133.458 204.948 133.667 204.906 133.875C204.781 134.375 204.74 134.771 204.781 135.062C204.906 135.229 205.01 135.375 205.094 135.5C205.219 135.625 205.302 135.792 205.344 136C205.594 136.167 205.781 136.271 205.906 136.312C206.073 136.438 206.323 136.583 206.656 136.75L207.219 137.375C207.427 138.583 207.24 139.542 206.656 140.25C206.031 141.042 204.969 141.438 203.469 141.438H202.719C202.51 141.229 202.385 141.062 202.344 140.938C202.01 140.812 201.74 140.708 201.531 140.625C201.323 140.542 201.135 140.375 200.969 140.125C200.427 139.875 199.99 139.667 199.656 139.5L199.094 139.188C199.094 138.729 199.094 138.479 199.094 138.438C198.802 138.062 198.573 137.646 198.406 137.188C198.281 136.729 198.177 136.271 198.094 135.812C198.01 135.438 197.906 135.083 197.781 134.75C197.698 134.417 197.573 134.125 197.406 133.875C197.323 131.458 197.552 129.417 198.094 127.75C198.635 126.083 199.198 124.479 199.781 122.938C200.115 122.104 200.448 121.271 200.781 120.438C201.115 119.562 201.406 118.667 201.656 117.75L202.219 117.125C202.51 116.458 202.74 115.917 202.906 115.5C203.115 115.042 203.323 114.583 203.531 114.125C203.656 113.833 203.76 113.562 203.844 113.312C203.969 113.021 204.073 112.771 204.156 112.562C203.906 112.562 203.677 112.583 203.469 112.625C203.26 112.625 203.052 112.646 202.844 112.688C202.594 112.729 202.365 112.771 202.156 112.812C201.948 112.812 201.74 112.812 201.531 112.812C201.24 112.812 201.031 112.792 200.906 112.75C200.448 112.958 199.948 113.062 199.406 113.062H198.781C198.656 113.062 198.531 113.062 198.406 113.062C198.323 113.021 198.24 113 198.156 113C197.74 113 197.406 113.062 197.156 113.188C196.656 113.188 196.177 113.188 195.719 113.188H195.094C195.01 113.188 194.906 113.208 194.781 113.25C194.656 113.25 194.552 113.25 194.469 113.25C194.177 113.25 193.865 113.229 193.531 113.188C193.198 113.104 192.844 112.958 192.469 112.75C191.969 112.083 191.635 111.729 191.469 111.688L190.906 110.938C190.865 110.688 190.802 110.458 190.719 110.25C190.635 110 190.552 109.729 190.469 109.438C190.302 109.021 190.135 108.583 189.969 108.125C189.844 107.625 189.781 107.042 189.781 106.375C189.823 106.042 189.906 105.792 190.031 105.625C190.156 105.458 190.26 105.312 190.344 105.188L190.531 104.25L191.344 104.312H193.094C194.427 104.312 195.781 104.271 197.156 104.188C198.531 104.062 199.948 103.938 201.406 103.812C202.24 103.729 203.073 103.646 203.906 103.562C204.781 103.479 205.677 103.396 206.594 103.312C206.76 102.938 206.927 102.583 207.094 102.25L207.719 101.938C208.469 101.896 208.99 102 209.281 102.25C209.615 102.458 209.885 102.667 210.094 102.875C211.01 102.792 211.927 102.708 212.844 102.625C213.802 102.5 214.76 102.354 215.719 102.188C217.135 101.979 218.552 101.792 219.969 101.625C221.427 101.458 222.823 101.375 224.156 101.375C224.74 101.375 225.302 101.396 225.844 101.438C226.385 101.479 226.885 101.542 227.344 101.625L227.969 102.062C228.094 102.312 228.26 102.542 228.469 102.75C228.719 102.958 228.969 103.167 229.219 103.375C229.719 103.833 230.219 104.375 230.719 105C231.219 105.625 231.406 106.542 231.281 107.75C230.948 108.25 230.698 108.542 230.531 108.625L229.969 109.375L229.344 109.312C229.094 109.312 228.865 109.354 228.656 109.438C228.448 109.479 228.24 109.542 228.031 109.625C227.865 109.708 227.698 109.792 227.531 109.875C227.365 109.917 227.177 109.958 226.969 110C226.594 110 226.281 110 226.031 110C225.823 109.958 225.594 109.938 225.344 109.938ZM257.344 104.438C257.427 105.354 257.573 106.146 257.781 106.812C257.99 107.479 258.219 108.125 258.469 108.75C258.677 109.333 258.865 109.917 259.031 110.5C259.24 111.042 259.385 111.708 259.469 112.5C259.135 113.583 258.885 114.583 258.719 115.5C258.594 116.417 258.448 117.375 258.281 118.375C257.615 119.833 256.969 121.125 256.344 122.25C255.719 123.375 255.219 124.354 254.844 125.188C254.635 125.396 254.448 125.646 254.281 125.938C254.156 126.188 254.01 126.458 253.844 126.75C253.76 126.875 253.656 127.062 253.531 127.312C253.406 127.562 253.302 127.729 253.219 127.812L251.969 127.375L251.719 128.938L250.844 129.188L250.219 129.938C249.427 131.312 248.594 132.479 247.719 133.438C246.844 134.354 245.844 135.188 244.719 135.938C243.635 136.646 242.385 137.312 240.969 137.938C239.594 138.562 238.031 139.25 236.281 140C235.573 139.917 234.948 139.875 234.406 139.875C233.906 139.833 233.427 139.792 232.969 139.75C232.177 139.75 231.198 139.688 230.031 139.562C229.906 139.229 229.719 139 229.469 138.875C229.219 138.75 228.99 138.688 228.781 138.688C228.073 138.354 227.531 137.875 227.156 137.25C226.823 136.583 226.49 135.875 226.156 135.125C225.948 134.667 225.74 134.25 225.531 133.875C225.323 133.458 225.094 133.042 224.844 132.625L225.906 132.312L224.531 130.812C224.448 130.688 224.344 130.583 224.219 130.5C224.094 130.375 223.99 130.25 223.906 130.125L223.844 129.125C223.719 126.25 223.656 123.625 223.656 121.25C223.698 118.833 224.031 116.688 224.656 114.812V114.125C224.781 113.208 224.906 112.458 225.031 111.875C225.156 111.25 225.26 110.667 225.344 110.125C225.469 109.208 225.656 108.354 225.906 107.562C226.49 107.438 226.927 107.208 227.219 106.875C227.51 106.5 227.76 106.167 227.969 105.875C228.552 105.833 228.948 105.917 229.156 106.125C229.365 106.333 229.573 106.667 229.781 107.125C229.99 107.5 230.24 107.917 230.531 108.375C230.865 108.833 231.344 109.188 231.969 109.438C232.052 109.771 232.156 110.125 232.281 110.5C232.448 110.833 232.615 111.208 232.781 111.625C233.115 112.333 233.406 113.083 233.656 113.875C233.948 114.625 234.115 115.354 234.156 116.062C233.74 116.854 233.406 117.771 233.156 118.812C232.948 119.854 232.802 120.917 232.719 122C232.677 123.042 232.698 124.062 232.781 125.062C232.906 126.021 233.094 126.833 233.344 127.5L233.719 128.312L234.781 128.188C236.031 127.854 237.156 127.5 238.156 127.125C239.198 126.708 240.156 126.229 241.031 125.688C241.906 125.146 242.74 124.521 243.531 123.812C244.323 123.062 245.156 122.208 246.031 121.25C246.906 120.292 247.656 119.208 248.281 118C248.948 116.75 249.49 115.458 249.906 114.125C250.365 112.792 250.698 111.479 250.906 110.188C251.156 108.854 251.323 107.604 251.406 106.438C252.115 106.188 252.469 105.688 252.469 104.938L252.344 104.25C252.177 104 252.177 103.708 252.344 103.375C252.594 102.583 253.177 101.979 254.094 101.562C254.76 101.979 255.344 102.438 255.844 102.938C256.385 103.438 256.885 103.938 257.344 104.438ZM267.969 133.5C267.51 135.167 267.094 136.438 266.719 137.312C266.385 138.146 265.865 139.021 265.156 139.938C264.615 139.854 264.24 139.917 264.031 140.125C263.823 140.333 263.594 140.521 263.344 140.688C262.969 140.771 262.698 140.771 262.531 140.688C262.365 140.604 262.219 140.5 262.094 140.375C261.969 140.292 261.802 140.188 261.594 140.062C261.427 139.979 261.156 139.938 260.781 139.938C260.698 139.604 260.594 139.292 260.469 139C260.385 138.708 260.115 138.604 259.656 138.688C259.74 138.354 259.76 138.083 259.719 137.875C259.677 137.625 259.615 137.417 259.531 137.25C259.49 137.042 259.448 136.854 259.406 136.688C259.365 136.479 259.385 136.229 259.469 135.938C259.26 135.938 259.094 135.792 258.969 135.5C258.844 135.208 258.698 134.917 258.531 134.625C258.656 133.875 258.781 133.167 258.906 132.5C259.031 131.833 259.177 131.208 259.344 130.625C259.552 130.042 259.719 129.458 259.844 128.875C259.969 128.292 259.906 127.688 259.656 127.062C259.823 127.188 259.948 127.167 260.031 127C260.115 126.792 260.177 126.542 260.219 126.25C260.26 125.917 260.281 125.604 260.281 125.312C260.281 124.979 260.26 124.708 260.219 124.5C260.635 123.417 260.969 122.312 261.219 121.188C261.51 120.021 261.76 118.875 261.969 117.75C262.219 116.625 262.469 115.521 262.719 114.438C262.969 113.354 263.302 112.354 263.719 111.438C264.177 111.354 264.677 111.417 265.219 111.625C265.802 111.792 266.156 112.021 266.281 112.312C267.365 111.479 268.323 110.479 269.156 109.312C269.99 108.104 270.844 106.938 271.719 105.812C272.594 104.688 273.552 103.688 274.594 102.812C275.677 101.938 277.031 101.417 278.656 101.25C279.49 101.875 280.406 102.521 281.406 103.188C282.448 103.812 283.302 104.646 283.969 105.688C284.302 105.854 284.573 106.042 284.781 106.25C285.031 106.417 285.323 106.604 285.656 106.812V107.562C286.156 108.021 286.552 108.562 286.844 109.188C287.177 109.771 287.469 110.417 287.719 111.125C287.969 111.792 288.219 112.479 288.469 113.188C288.719 113.854 289.01 114.5 289.344 115.125C289.26 115.333 289.219 115.521 289.219 115.688C289.219 115.812 289.24 115.958 289.281 116.125C289.365 116.292 289.427 116.458 289.469 116.625C289.51 116.792 289.51 117.021 289.469 117.312C289.344 119.146 288.74 120.625 287.656 121.75C286.615 122.875 285.344 123.812 283.844 124.562C282.344 125.271 280.74 125.875 279.031 126.375C277.323 126.875 275.781 127.417 274.406 128C274.406 128.167 274.469 128.25 274.594 128.25C274.76 128.25 274.823 128.354 274.781 128.562C275.781 129.188 276.573 129.688 277.156 130.062C277.74 130.438 278.281 130.75 278.781 131C279.323 131.25 279.885 131.479 280.469 131.688C281.094 131.854 281.948 132.062 283.031 132.312C284.115 132.562 284.948 132.771 285.531 132.938C286.156 133.062 286.719 133.188 287.219 133.312C287.719 133.396 288.219 133.479 288.719 133.562C289.26 133.604 290.01 133.667 290.969 133.75C291.344 134.125 291.656 134.583 291.906 135.125C292.198 135.625 292.385 136.146 292.469 136.688C292.552 137.188 292.573 137.688 292.531 138.188C292.49 138.646 292.344 139.021 292.094 139.312C292.135 139.438 292.219 139.5 292.344 139.5C292.51 139.458 292.677 139.458 292.844 139.5C292.594 139.667 292.385 139.875 292.219 140.125C292.052 140.375 291.885 140.625 291.719 140.875C291.552 141.125 291.365 141.333 291.156 141.5C290.948 141.708 290.656 141.833 290.281 141.875C288.99 142.375 287.365 142.396 285.406 141.938C283.448 141.521 280.969 140.729 277.969 139.562C276.469 138.979 275.24 138.479 274.281 138.062C273.365 137.604 272.552 137.167 271.844 136.75C271.177 136.292 270.552 135.812 269.969 135.312C269.427 134.812 268.76 134.208 267.969 133.5ZM276.906 112.062C276.448 112.729 275.927 113.333 275.344 113.875C274.802 114.417 274.26 114.979 273.719 115.562C273.219 116.104 272.76 116.729 272.344 117.438C271.927 118.104 271.635 118.896 271.469 119.812C272.927 119.646 274.448 119.25 276.031 118.625C277.615 117.958 279.115 117.333 280.531 116.75C280.365 115.458 279.906 114.417 279.156 113.625C278.448 112.833 277.698 112.312 276.906 112.062ZM327.406 104.812C327.448 105.104 327.448 105.333 327.406 105.5C327.406 105.625 327.385 105.75 327.344 105.875C327.344 106 327.344 106.146 327.344 106.312C327.344 106.438 327.385 106.646 327.469 106.938C326.594 108.354 325.573 109.333 324.406 109.875C323.281 110.375 322.052 110.75 320.719 111C319.385 111.208 318.01 111.438 316.594 111.688C315.219 111.938 313.844 112.479 312.469 113.312C311.927 113.104 311.427 113.104 310.969 113.312C310.552 113.521 309.927 113.583 309.094 113.5C308.844 113.75 308.531 113.938 308.156 114.062C307.781 114.146 307.406 114.25 307.031 114.375C307.198 114.75 307.26 115.146 307.219 115.562C307.219 115.938 307.281 116.25 307.406 116.5C308.865 116.625 310.469 116.604 312.219 116.438C314.01 116.271 315.76 116.167 317.469 116.125C317.51 116.333 317.49 116.479 317.406 116.562C317.323 116.604 317.302 116.708 317.344 116.875C317.635 117.083 317.927 117.354 318.219 117.688C318.51 117.979 318.802 118.271 319.094 118.562C319.385 118.854 319.677 119.104 319.969 119.312C320.302 119.479 320.677 119.542 321.094 119.5C321.26 119.833 321.365 120.208 321.406 120.625C321.49 121 321.448 121.396 321.281 121.812C320.615 122.271 319.948 122.75 319.281 123.25C318.615 123.708 317.906 124.125 317.156 124.5C316.448 124.875 315.677 125.188 314.844 125.438C314.052 125.646 313.156 125.729 312.156 125.688C311.948 125.688 311.781 125.688 311.656 125.688C311.573 125.688 311.448 125.625 311.281 125.5C310.948 125.708 310.469 125.771 309.844 125.688C309.26 125.604 308.802 125.667 308.469 125.875C308.01 125.667 307.448 125.583 306.781 125.625C306.156 125.625 305.594 125.542 305.094 125.375C304.427 126.25 303.823 127.188 303.281 128.188C302.74 129.188 302.26 130.25 301.844 131.375C303.26 131.583 304.427 131.667 305.344 131.625C306.302 131.583 307.198 131.521 308.031 131.438C308.865 131.312 309.719 131.208 310.594 131.125C311.469 131 312.573 130.958 313.906 131C314.74 130.542 315.719 130.25 316.844 130.125C318.01 129.958 319.073 129.708 320.031 129.375C320.365 129.5 320.656 129.729 320.906 130.062C321.156 130.354 321.385 130.646 321.594 130.938C321.844 131.188 322.094 131.417 322.344 131.625C322.594 131.833 322.906 131.917 323.281 131.875C323.448 132.042 323.552 132.25 323.594 132.5C323.677 132.708 323.74 132.917 323.781 133.125C323.823 133.333 323.885 133.521 323.969 133.688C324.094 133.812 324.281 133.854 324.531 133.812C323.906 135.188 323.177 136.25 322.344 137C321.552 137.708 320.635 138.25 319.594 138.625C318.552 139 317.385 139.292 316.094 139.5C314.844 139.708 313.448 139.958 311.906 140.25C311.531 140.333 311.219 140.312 310.969 140.188C310.719 140.104 310.427 140.062 310.094 140.062C309.135 140.271 307.99 140.458 306.656 140.625C305.323 140.792 303.969 140.854 302.594 140.812C301.219 140.771 299.906 140.583 298.656 140.25C297.406 139.958 296.385 139.417 295.594 138.625C295.26 138.333 295.031 138 294.906 137.625C294.823 137.208 294.552 136.896 294.094 136.688C294.052 136.146 293.969 135.542 293.844 134.875C293.719 134.208 293.594 133.521 293.469 132.812C293.344 132.062 293.24 131.333 293.156 130.625C293.115 129.917 293.156 129.271 293.281 128.688C293.406 128.062 293.656 127.5 294.031 127C294.448 126.5 294.594 125.958 294.469 125.375C294.677 125.333 294.802 125.229 294.844 125.062C294.885 124.854 295.052 124.771 295.344 124.812C295.594 124.062 295.865 123.354 296.156 122.688C296.448 122.021 296.74 121.375 297.031 120.75C297.365 120.125 297.677 119.5 297.969 118.875C298.302 118.208 298.615 117.479 298.906 116.688C298.323 116.146 297.885 115.562 297.594 114.938C297.344 114.271 297.156 113.625 297.031 113C296.906 112.333 296.802 111.667 296.719 111C296.635 110.292 296.49 109.583 296.281 108.875C296.698 108.25 297.198 107.75 297.781 107.375C298.406 106.958 299.073 106.625 299.781 106.375C300.49 106.125 301.26 105.917 302.094 105.75C302.927 105.583 303.802 105.396 304.719 105.188C306.385 104.646 307.865 104.229 309.156 103.938C310.49 103.646 311.781 103.417 313.031 103.25C314.323 103.042 315.656 102.854 317.031 102.688C318.406 102.521 319.969 102.271 321.719 101.938C322.094 102.312 322.448 102.5 322.781 102.5C322.948 102.125 323.135 102.021 323.344 102.188C323.594 102.312 323.698 102.188 323.656 101.812C324.073 102.521 324.594 103.125 325.219 103.625C325.885 104.083 326.615 104.479 327.406 104.812ZM326.906 111.875C327.198 111 327.656 110.25 328.281 109.625C328.948 109 329.656 108.479 330.406 108.062C331.198 107.604 332.01 107.229 332.844 106.938C333.677 106.646 334.469 106.396 335.219 106.188C336.885 105.479 338.656 104.812 340.531 104.188C342.448 103.521 344.385 102.938 346.344 102.438C348.344 101.938 350.385 101.625 352.469 101.5C354.552 101.333 356.74 101.583 359.031 102.25C359.156 102.667 359.344 103.062 359.594 103.438C359.844 103.812 360.094 104.188 360.344 104.562C360.635 104.938 360.885 105.312 361.094 105.688C361.302 106.021 361.427 106.375 361.469 106.75C361.885 107.125 362.219 107.542 362.469 108C362.719 108.417 362.76 108.979 362.594 109.688C362.177 110.021 361.76 110.333 361.344 110.625C360.969 110.875 360.552 111.104 360.094 111.312C358.552 110.938 356.99 110.812 355.406 110.938C353.823 111.062 352.406 111.167 351.156 111.25C350.781 110.875 350.323 110.688 349.781 110.688C349.281 110.688 348.74 110.771 348.156 110.938C347.615 111.104 347.052 111.271 346.469 111.438C345.927 111.604 345.406 111.646 344.906 111.562C344.49 111.896 343.969 112.125 343.344 112.25C342.76 112.333 342.115 112.417 341.406 112.5C341.365 112.708 341.406 112.854 341.531 112.938C341.656 112.979 341.677 113.104 341.594 113.312C341.844 113.604 342.156 113.812 342.531 113.938C342.948 114.062 343.365 114.188 343.781 114.312C344.24 114.438 344.635 114.604 344.969 114.812C345.302 114.979 345.531 115.271 345.656 115.688C346.281 115.688 346.823 115.833 347.281 116.125C347.74 116.417 348.115 116.771 348.406 117.188C348.698 117.604 348.906 118.062 349.031 118.562C349.198 119.021 349.281 119.438 349.281 119.812C349.406 120.146 349.552 120.292 349.719 120.25C349.885 120.208 350.073 120.292 350.281 120.5C350.406 121.042 350.719 121.604 351.219 122.188C351.719 122.729 352.115 123.333 352.406 124C352.49 125.042 352.552 125.979 352.594 126.812C352.635 127.604 352.49 128.417 352.156 129.25C351.531 130.792 350.656 132.167 349.531 133.375C348.448 134.583 347.198 135.667 345.781 136.625C344.406 137.542 342.927 138.333 341.344 139C339.76 139.667 338.219 140.229 336.719 140.688C336.552 140.646 336.385 140.646 336.219 140.688C336.052 140.729 336.01 140.625 336.094 140.375C335.76 140.667 335.385 140.854 334.969 140.938C334.594 141.021 334.177 141.042 333.719 141C333.26 141 332.781 140.979 332.281 140.938C331.823 140.896 331.385 140.917 330.969 141C330.677 140.708 330.406 140.417 330.156 140.125C329.948 139.875 329.781 139.542 329.656 139.125C329.448 139.125 329.344 139.021 329.344 138.812C329.385 138.604 329.323 138.5 329.156 138.5C329.406 138.083 329.51 137.854 329.469 137.812C329.469 137.729 329.406 137.667 329.281 137.625C329.198 137.583 329.115 137.542 329.031 137.5C328.948 137.417 328.927 137.312 328.969 137.188C329.135 136.854 329.198 136.479 329.156 136.062C329.115 135.604 329.073 135.146 329.031 134.688C328.99 134.229 329.01 133.792 329.094 133.375C329.219 132.958 329.531 132.625 330.031 132.375C331.448 132.542 332.781 132.5 334.031 132.25C335.323 131.958 336.531 131.562 337.656 131.062C338.781 130.562 339.844 130.021 340.844 129.438C341.885 128.854 342.906 128.333 343.906 127.875C344.031 127.5 344.198 127.188 344.406 126.938C344.656 126.688 344.906 126.458 345.156 126.25C345.406 126.042 345.635 125.812 345.844 125.562C346.052 125.312 346.198 125 346.281 124.625C346.323 124.333 346.24 124.167 346.031 124.125C345.865 124.042 345.781 123.875 345.781 123.625L345.094 123.438C344.302 122.979 343.406 122.604 342.406 122.312C341.406 121.979 340.552 121.625 339.844 121.25C339.385 121.5 338.948 121.562 338.531 121.438C338.156 121.312 337.656 121.188 337.031 121.062C335.615 120.979 334.24 120.833 332.906 120.625C331.615 120.417 330.365 120.042 329.156 119.5C329.073 119.292 328.969 119.104 328.844 118.938C328.719 118.771 328.49 118.729 328.156 118.812C327.906 118.479 327.656 118.167 327.406 117.875C327.156 117.542 326.927 117.188 326.719 116.812C326.802 116.312 326.865 115.896 326.906 115.562C326.948 115.188 326.823 114.833 326.531 114.5C326.698 113.958 326.823 113.521 326.906 113.188C326.99 112.854 326.99 112.417 326.906 111.875Z" fill="black"/>
</svg>
